<?xml version="1.0" standalone="no"?>
<!DOCTYPE svg PUBLIC "-//W3C//DTD SVG 20010904//EN"
 "http://www.w3.org/TR/2001/REC-SVG-20010904/DTD/svg10.dtd">
<svg version="1.0" xmlns="http://www.w3.org/2000/svg"
 width="512.000000pt" height="512.000000pt" viewBox="0 0 512.000000 512.000000"
 preserveAspectRatio="xMidYMid meet">
<metadata>
Created by potrace 1.11, written by Peter Selinger 2001-2013
</metadata>
<g transform="translate(0.000000,512.000000) scale(0.100000,-0.100000)"
fill="#000000" stroke="none">
<path d="M2453 4889 c-18 -6 -38 -51 -34 -74 1 -3 -6 -20 -16 -38 -9 -17 -17
-34 -18 -37 -1 -11 -24 -44 -25 -36 0 5 -9 -1 -19 -13 -11 -12 -28 -23 -38
-23 -24 -2 -96 22 -89 30 3 3 -4 10 -16 16 -12 6 -40 37 -61 69 -63 92 -117
73 -122 -43 -1 -19 -8 -48 -14 -65 -7 -16 -12 -31 -12 -32 4 -14 -2 -23 -15
-23 -8 0 -13 -4 -10 -9 3 -4 -6 -13 -20 -20 -20 -9 -24 -9 -18 1 6 10 4 10 -7
2 -8 -5 -21 -10 -29 -9 -8 1 -21 3 -28 3 -7 1 -11 6 -8 11 3 4 -6 6 -21 3 -16
-3 -24 -1 -20 5 4 6 -3 13 -14 16 -12 3 -18 10 -14 17 3 6 3 9 -2 8 -4 -2 -10
2 -13 7 -8 20 -83 76 -89 67 -3 -5 -14 -12 -25 -15 -16 -6 -18 -16 -15 -85 6
-126 -35 -192 -120 -192 -43 0 -111 31 -111 51 0 6 -4 7 -10 4 -5 -3 -10 0
-10 8 0 7 -17 21 -37 31 l-37 18 -24 -28 c-20 -22 -22 -33 -16 -63 4 -20 8
-46 8 -58 1 -13 3 -23 6 -23 8 0 5 -57 -4 -98 -4 -18 -12 -30 -17 -26 -5 3 -9
1 -9 -4 0 -13 -47 -32 -79 -32 -34 0 -109 25 -131 44 -24 21 -69 25 -86 9 -17
-17 -14 -42 16 -126 19 -54 20 -87 3 -142 -6 -19 -33 -52 -33 -39 0 3 -6 1
-14 -5 -25 -21 -114 -22 -149 -1 -33 19 -79 19 -102 0 -20 -16 -26 -50 -9 -57
8 -3 14 -14 14 -24 0 -10 5 -19 10 -19 6 0 10 -5 10 -12 0 -6 8 -20 17 -30 20
-22 25 -39 25 -89 1 -38 -28 -88 -50 -89 -7 0 -11 -4 -8 -9 3 -5 -1 -12 -10
-15 -10 -4 -13 -2 -8 7 6 9 4 9 -8 -1 -9 -7 -31 -10 -57 -7 -59 8 -65 9 -72
18 -9 13 -68 -14 -74 -34 -8 -25 3 -60 27 -81 12 -10 17 -22 12 -29 -4 -7 -3
-9 4 -5 6 3 20 -7 32 -24 12 -16 18 -30 13 -30 -4 0 -3 -4 3 -8 16 -10 27 -82
13 -82 -6 0 -9 -6 -6 -14 13 -32 -70 -75 -146 -75 -72 0 -90 -5 -103 -33 -14
-31 9 -71 52 -94 18 -10 32 -20 30 -22 -2 -2 12 -19 32 -39 21 -19 31 -32 24
-28 -17 9 -15 -3 3 -22 12 -12 13 -18 4 -29 -9 -11 -8 -18 2 -31 10 -11 10
-14 2 -9 -7 4 -13 3 -13 -3 0 -12 -47 -60 -60 -62 -14 -2 -23 -5 -41 -13 -9
-4 -27 -8 -40 -10 -44 -6 -76 -24 -82 -47 -7 -27 6 -55 34 -69 11 -7 17 -16
12 -23 -4 -7 0 -7 10 2 11 8 17 9 17 3 0 -7 7 -9 17 -5 11 4 14 3 9 -5 -4 -7
-1 -12 8 -12 19 0 21 -11 4 -28 -8 -8 -8 -12 -1 -12 6 0 14 7 17 15 5 13 10
14 26 5 17 -9 19 -14 9 -26 -9 -11 -8 -14 5 -14 9 0 16 -5 16 -11 0 -5 -4 -8
-8 -5 -5 3 -9 -1 -9 -9 0 -8 5 -13 10 -12 10 2 12 -13 8 -57 -1 -17 -49 -76
-59 -74 -4 1 -14 -1 -22 -5 -8 -3 -36 -13 -62 -22 -30 -11 -45 -22 -42 -30 3
-7 1 -16 -5 -20 -8 -4 -6 -16 4 -36 9 -16 20 -27 25 -24 5 3 11 1 15 -5 4 -6
11 -8 16 -5 5 4 9 0 9 -8 0 -7 7 -14 15 -14 8 0 15 5 15 11 0 6 5 4 10 -4 5
-8 7 -22 4 -31 -5 -19 17 -31 35 -19 9 5 10 10 2 14 -6 4 -15 4 -21 1 -5 -3
-7 0 -4 9 5 12 9 13 25 3 11 -7 22 -20 25 -31 4 -13 8 -15 14 -6 5 8 9 7 13
-5 4 -9 3 -13 -3 -10 -6 3 -10 1 -10 -4 0 -6 6 -11 14 -11 9 0 13 -7 11 -20
-2 -11 0 -20 6 -20 12 0 7 -21 -9 -38 -7 -8 -10 -18 -7 -22 3 -5 -4 -14 -15
-20 -12 -6 -18 -16 -13 -23 4 -8 1 -8 -9 1 -14 11 -17 10 -23 -7 -3 -12 -12
-21 -18 -21 -19 -1 -66 -47 -63 -63 4 -28 32 -60 57 -63 13 -1 28 -3 32 -3 5
-1 5 -7 1 -13 -5 -9 -2 -9 9 1 14 11 20 11 32 1 8 -7 15 -9 15 -5 0 4 6 2 13
-4 8 -6 18 -7 22 -3 5 4 5 1 1 -5 -4 -7 -2 -13 4 -13 6 0 8 -4 5 -10 -3 -5 3
-10 14 -10 12 0 21 -4 21 -9 0 -5 8 -12 18 -14 16 -4 16 -5 0 -6 -10 0 -18 -5
-18 -11 0 -5 7 -6 17 -3 10 4 14 2 10 -4 -4 -6 -2 -13 4 -15 7 -2 9 -15 5 -35
-6 -24 -11 -30 -23 -26 -12 5 -15 2 -10 -10 4 -10 2 -16 -6 -14 -7 1 -11 -6
-9 -16 2 -9 -2 -17 -7 -17 -6 0 -24 -14 -41 -30 -24 -23 -30 -36 -24 -52 10
-32 27 -46 55 -44 13 1 32 -2 41 -6 12 -6 18 -5 18 4 0 6 6 3 14 -8 8 -10 12
-21 10 -24 -3 -2 -9 2 -13 9 -6 9 -11 10 -15 2 -4 -6 -2 -11 3 -11 6 0 10 -6
8 -13 -1 -6 5 -12 13 -13 8 -1 26 -5 39 -11 14 -5 38 -8 53 -7 21 3 27 0 22
-9 -4 -6 -3 -8 1 -4 12 10 15 37 5 37 -5 0 -12 -5 -15 -10 -5 -8 -11 -7 -21 1
-11 9 -14 8 -14 -2 0 -8 -5 -7 -13 5 -7 9 -19 16 -27 14 -8 -2 -14 3 -12 11 1
7 -2 19 -7 25 -8 9 -7 13 4 13 8 0 12 -4 9 -8 -2 -4 3 -15 12 -24 15 -15 17
-14 31 2 8 10 12 12 8 5 -10 -20 15 -45 31 -31 15 12 38 3 29 -12 -4 -5 -1 -9
6 -9 8 0 7 -5 -2 -17 -12 -14 -12 -16 2 -11 12 5 15 -1 14 -30 -1 -20 -7 -38
-14 -40 -6 -2 -9 -8 -6 -12 3 -5 -10 -27 -30 -48 -39 -44 -45 -80 -16 -106 20
-19 80 -19 93 -1 5 6 8 5 8 -4 0 -11 3 -11 15 -1 8 7 15 8 15 4 0 -5 -9 -15
-21 -22 -12 -8 -18 -9 -15 -3 5 7 1 8 -10 4 -15 -5 -15 -7 0 -15 13 -7 14 -13
5 -29 -6 -12 -8 -23 -6 -26 3 -2 8 5 12 16 3 12 11 21 16 21 12 0 11 -14 -2
-27 -8 -8 -7 -13 2 -18 7 -5 10 -4 5 3 -8 14 11 25 27 15 22 -14 39 -13 27 2
-9 10 -6 15 12 20 13 4 31 14 41 23 11 10 17 11 17 3 0 -7 5 -9 12 -5 9 5 8 2
-1 -10 -8 -9 -20 -15 -27 -12 -16 6 -12 -21 6 -37 12 -10 12 -9 1 5 -15 20 -2
25 17 6 9 -9 15 -9 23 -1 8 8 7 13 -2 18 -8 5 -10 4 -5 -3 4 -7 3 -12 -3 -12
-12 0 -26 20 -14 21 4 0 16 2 26 4 9 2 15 -1 12 -5 -3 -5 -1 -11 5 -15 5 -3
10 -11 10 -16 0 -6 -4 -7 -10 -4 -6 4 -8 -5 -4 -22 4 -19 -3 -43 -20 -76 -29
-54 -38 -88 -26 -106 4 -7 9 -12 11 -11 2 1 16 -1 31 -5 14 -4 36 -1 48 5 20
11 25 9 45 -16 20 -25 25 -27 39 -15 9 7 16 19 16 27 0 7 4 16 10 19 11 7 2
-23 -13 -42 -6 -9 -6 -13 1 -13 6 0 14 5 17 10 4 6 10 8 15 5 4 -2 20 5 34 16
15 12 30 19 33 15 4 -3 1 -6 -6 -6 -7 0 -9 -5 -6 -10 5 -8 12 -7 23 2 12 9 11
6 -2 -10 -21 -24 -16 -28 15 -12 11 6 19 7 18 3 -1 -4 0 -10 1 -13 9 -21 3
-92 -11 -124 -13 -30 -15 -45 -7 -67 5 -16 15 -30 21 -30 54 -5 74 -2 88 15
11 14 18 16 23 8 4 -7 5 -12 1 -12 -3 0 -1 -9 5 -20 6 -11 16 -17 25 -14 8 4
12 11 8 17 -4 6 7 2 23 -10 28 -19 59 -23 72 -7 4 4 0 5 -8 2 -9 -3 -24 0 -35
8 -15 11 -16 17 -7 26 7 7 12 8 12 4 0 -5 8 -2 18 5 13 10 12 8 -3 -10 l-20
-24 22 7 c12 4 24 2 27 -3 10 -15 36 -2 36 18 0 14 -2 14 -10 1 -9 -13 -10
-13 -10 0 0 13 -1 13 -10 0 -8 -13 -10 -13 -10 2 0 9 5 20 10 23 6 3 10 1 10
-5 0 -6 4 -9 9 -6 4 3 17 -2 27 -10 10 -9 12 -12 4 -8 -8 4 -12 4 -8 -1 4 -4
2 -15 -5 -24 -11 -14 -10 -14 6 -2 9 8 20 11 24 8 3 -4 6 -42 5 -85 -1 -70 1
-81 21 -98 23 -20 43 -17 81 15 9 7 17 11 17 7 2 -8 6 -24 9 -33 1 -5 6 3 11
17 l8 25 -2 -25 c-1 -14 -5 -23 -9 -20 -4 3 -14 -4 -23 -15 -11 -14 -15 -15
-13 -5 2 9 -1 17 -6 18 -6 1 -11 -4 -12 -13 -2 -15 8 -19 36 -15 8 1 29 18 47
37 18 19 37 32 43 28 5 -3 10 -1 10 6 0 7 7 4 15 -7 8 -10 15 -15 15 -10 0 5
6 3 14 -3 10 -8 16 -9 21 -1 4 6 3 10 -2 9 -13 -3 -43 12 -43 23 0 5 4 7 9 4
5 -4 11 -3 14 1 2 5 2 2 1 -4 -2 -7 0 -13 5 -13 15 0 20 13 11 30 -8 15 -6 18
8 15 9 -2 20 -4 25 -4 4 -1 7 -8 7 -16 0 -8 3 -14 8 -14 18 3 29 -2 30 -13 1
-7 3 -31 6 -53 9 -84 28 -124 51 -105 6 5 14 7 17 5 8 -8 58 17 53 26 -3 4 0
11 7 15 7 4 10 4 6 -1 -4 -4 0 -14 10 -22 13 -11 13 -13 2 -10 -21 6 -47 -9
-61 -36 l-11 -22 22 23 c14 15 28 21 40 17 10 -3 21 -1 25 5 3 6 11 8 16 4 5
-3 7 -10 4 -15 -4 -5 -1 -9 4 -9 14 0 14 27 1 35 -5 3 -10 12 -9 18 0 9 2 8 6
-1 2 -6 10 -9 15 -6 7 4 8 2 4 -4 -4 -7 -2 -12 4 -12 6 0 8 -5 4 -12 -4 -7 -3
-8 5 -4 6 4 10 15 9 24 -4 21 -30 42 -42 35 -5 -4 -6 -1 -2 6 5 8 15 6 36 -9
18 -13 31 -16 35 -10 3 5 1 10 -4 10 -6 0 -11 4 -11 8 0 5 7 9 15 9 8 0 12 -4
9 -9 -3 -4 -1 -8 4 -8 5 0 12 9 15 21 6 21 34 21 30 0 -2 -6 4 -11 13 -11 8 0
13 4 10 9 -4 5 1 8 9 7 20 -3 48 -43 40 -56 -3 -6 -2 -10 3 -10 5 0 9 -7 10
-15 1 -8 3 -22 4 -31 1 -9 10 -19 20 -22 10 -2 15 -8 12 -13 -7 -12 37 -4 66
11 19 10 20 10 8 -9 -6 -11 -15 -18 -18 -16 -3 2 -12 -5 -18 -16 -12 -19 -12
-20 13 -3 26 17 27 17 23 -2 -2 -16 3 -19 36 -21 21 0 35 2 30 5 -13 10 -16
32 -5 32 5 0 13 -9 16 -21 4 -11 9 -18 12 -16 2 3 0 15 -7 26 -7 14 -7 21 0
21 5 0 10 5 10 10 0 6 -11 3 -25 -6 -14 -9 -22 -20 -19 -25 3 -5 0 -9 -5 -9
-6 0 -11 7 -11 15 0 8 -5 15 -10 15 -7 0 -7 -6 0 -20 8 -15 8 -20 -3 -20 -8 0
-13 9 -12 22 2 17 8 22 23 21 14 -2 19 3 17 15 -1 9 0 11 2 5 3 -7 9 -13 14
-13 6 0 7 5 4 10 -4 6 -1 9 6 8 6 -2 14 3 17 11 2 8 0 11 -5 8 -5 -3 -10 1
-10 9 0 10 4 11 11 4 15 -15 30 -12 18 3 -8 9 -8 17 0 27 8 12 9 12 4 -2 -3
-10 -1 -20 5 -24 6 -4 4 -13 -6 -24 -18 -20 -7 -34 15 -19 13 7 13 9 1 9 -20
0 -5 13 20 17 13 2 18 -1 13 -9 -4 -7 -3 -8 5 -4 6 4 9 12 6 17 -4 5 -3 14 1
20 4 8 9 7 15 -2 6 -10 9 -10 9 -2 0 6 -4 15 -10 18 -13 8 -13 25 -1 25 5 0
13 -10 16 -21 6 -17 9 -19 17 -8 7 11 11 11 15 2 2 -7 9 -13 15 -13 5 0 1 12
-10 27 -30 44 -32 50 -18 50 8 0 12 -6 9 -14 -3 -8 0 -11 8 -8 14 5 45 -32 35
-42 -3 -3 4 -14 14 -26 15 -15 17 -24 9 -33 -8 -10 -6 -12 11 -9 15 3 20 0 17
-9 -3 -7 1 -13 9 -13 7 0 11 4 8 9 -3 4 0 8 5 8 6 0 11 -5 11 -11 0 -5 5 -7
10 -4 6 4 7 12 3 18 -4 8 -1 7 9 -1 11 -8 17 -9 20 -2 2 6 11 2 20 -9 14 -16
14 -20 2 -25 -7 -3 -13 -2 -13 2 3 19 -3 22 -21 12 -11 -6 -20 -16 -19 -23 0
-9 2 -9 6 1 2 6 9 12 15 12 6 0 8 -7 4 -15 -3 -8 0 -14 7 -12 7 1 11 -4 9 -11
-1 -8 2 -11 7 -7 6 3 8 12 4 20 -5 15 12 21 20 8 2 -5 2 -3 1 4 -4 17 13 26
19 11 4 -10 6 -10 6 0 1 7 5 11 10 7 5 -3 13 0 17 7 4 7 4 10 -1 6 -4 -4 -15
-2 -23 5 -11 8 -14 8 -9 0 4 -7 1 -10 -9 -9 -19 3 -41 36 -24 36 5 0 10 -7 10
-17 0 -14 2 -14 20 2 19 17 19 35 -1 35 -6 0 -7 -5 -3 -12 4 -7 3 -8 -5 -4
-19 12 -1 27 22 20 20 -6 20 -5 8 10 -12 14 -12 16 4 10 13 -5 16 -4 11 4 -5
8 -1 10 10 5 13 -5 15 -3 9 7 -5 9 -4 11 3 6 7 -4 13 -1 13 6 1 7 2 19 3 27 0
8 7 15 14 17 7 1 8 0 2 -3 -5 -2 -10 -10 -10 -15 0 -6 3 -8 6 -5 9 9 46 -12
39 -23 -3 -5 -1 -11 4 -14 5 -4 8 2 6 11 -3 23 6 38 14 24 4 -6 11 -3 19 9 7
12 8 20 2 20 -5 0 -10 -6 -10 -12 0 -9 -4 -8 -10 2 -7 11 -10 11 -10 2 0 -7
-5 -10 -12 -6 -7 5 -8 3 -3 -6 5 -9 4 -11 -4 -6 -6 4 -9 11 -6 16 3 5 1 11 -5
15 -13 8 -3 25 13 25 8 0 8 -3 -2 -9 -10 -7 -10 -10 -1 -16 7 -4 16 -1 21 6 7
11 9 11 9 1 0 -10 5 -10 23 -1 12 6 19 8 15 4 -5 -5 1 -15 12 -22 11 -8 18
-19 15 -24 -4 -5 -1 -9 5 -9 7 0 9 -7 6 -16 -3 -8 -2 -12 4 -9 6 3 10 2 10 -4
0 -5 13 -7 29 -5 17 3 32 0 37 -7 5 -9 2 -10 -9 -6 -10 3 -17 2 -17 -3 0 -6 7
-10 16 -10 9 0 12 -5 8 -12 -6 -10 -5 -10 8 -1 18 15 28 8 29 -21 0 -21 1 -21
8 -1 5 12 4 23 -3 27 -6 5 -1 8 12 8 20 0 21 -3 12 -22 -10 -21 -10 -21 3 -6
8 10 18 14 23 10 4 -4 2 1 -5 11 -13 16 -12 19 8 24 12 3 20 11 17 18 -7 18 5
27 20 14 8 -7 14 -7 19 1 4 6 1 9 -6 8 -7 -2 -13 10 -14 28 -3 28 -1 31 18 28
20 -4 20 -4 -1 6 -31 13 -47 3 -30 -18 11 -13 11 -14 -1 -7 -9 5 -12 4 -7 -3
3 -6 2 -13 -3 -17 -5 -3 -8 -14 -6 -25 3 -13 -1 -17 -11 -13 -9 3 -14 0 -12
-7 2 -7 -5 -14 -14 -15 -11 -2 -15 2 -11 11 3 8 9 14 14 14 4 0 7 6 5 13 -1 6
-1 9 1 5 11 -18 23 -6 13 12 -8 15 -8 18 4 14 10 -4 13 2 11 24 -1 16 -6 35
-10 42 -6 9 -3 9 13 1 26 -14 35 -14 27 -1 -4 6 1 7 11 3 13 -5 15 -3 9 7 -6
9 -4 11 5 5 10 -6 9 -11 -5 -22 -11 -7 -14 -13 -8 -13 18 0 33 25 28 49 -2 12
0 19 6 16 5 -4 7 -11 4 -16 -4 -5 -1 -9 5 -9 8 0 8 -6 0 -21 -7 -11 -9 -23 -7
-26 3 -2 8 5 12 16 3 12 10 19 14 17 4 -3 8 5 8 17 2 17 0 19 -7 7 -5 -8 -10
-10 -10 -4 0 18 23 32 48 28 17 -3 21 0 16 8 -6 9 -3 9 9 -1 9 -7 15 -16 13
-20 -2 -3 2 -12 10 -19 8 -7 14 -10 14 -7 0 3 8 1 19 -4 13 -7 24 -6 37 4 11
8 26 14 34 15 14 0 -13 -19 -54 -38 -19 -8 -19 -9 2 -14 12 -4 20 -2 16 3 -5
8 9 13 29 10 4 0 7 3 7 7 0 5 10 14 23 19 20 10 23 8 23 -12 0 -20 -3 -22 -19
-13 -14 7 -17 7 -13 0 4 -7 -1 -9 -14 -7 -11 2 -20 0 -20 -6 0 -5 11 -7 24 -5
18 3 23 1 19 -10 -3 -8 0 -14 7 -14 6 0 8 5 4 12 -5 8 -2 9 10 5 11 -5 15 -3
10 5 -5 8 -1 9 12 5 18 -7 18 -6 1 7 -18 14 -18 15 0 25 10 6 12 11 6 11 -7 0
-13 4 -13 9 0 5 8 8 17 7 10 0 18 6 18 14 2 23 -15 51 -26 45 -5 -4 -9 -1 -9
4 0 6 6 11 13 12 6 0 2 5 -10 11 -13 6 -23 16 -23 22 0 6 5 5 12 -2 15 -15 38
-16 38 -2 0 5 -3 9 -7 9 -20 -3 -24 2 -13 16 7 8 16 12 21 9 16 -10 9 9 -8 23
-16 12 -15 13 7 2 35 -17 36 -17 14 -35 -10 -8 -13 -13 -7 -9 8 4 11 1 7 -8
-3 -8 0 -18 7 -23 7 -4 10 -3 6 4 -9 14 3 43 14 36 5 -3 6 3 2 13 -5 14 -3 16
7 6 20 -19 52 5 38 30 -5 10 -7 21 -4 25 3 3 6 0 6 -7 0 -7 4 -10 9 -6 5 3 13
1 16 -5 5 -8 11 -7 21 1 9 7 14 8 14 1 0 -6 9 -14 20 -17 21 -7 28 -35 9 -35
-5 0 -8 4 -4 9 7 12 -11 23 -42 27 -26 3 -30 -8 -9 -25 10 -8 16 -9 21 -1 3 5
11 10 17 10 6 0 6 -6 -2 -15 -7 -9 -10 -18 -6 -22 3 -3 6 -1 6 5 0 6 6 9 14 6
16 -6 40 29 28 41 -4 4 3 3 15 -4 12 -6 25 -16 29 -23 4 -6 3 -8 -4 -4 -6 3
-21 -4 -34 -16 -13 -13 -17 -17 -8 -11 22 17 30 16 31 -4 0 -15 2 -15 9 2 7
18 8 19 15 3 4 -10 11 -15 17 -12 5 3 1 12 -9 20 -17 14 -17 14 2 12 11 -2 23
-7 26 -12 4 -5 10 1 14 13 3 11 11 21 17 21 6 0 8 3 5 7 -4 3 -1 13 6 22 10
14 10 14 -4 4 -22 -18 -33 -3 -11 14 16 14 16 14 0 9 -12 -3 -18 0 -18 10 0 9
5 12 12 8 7 -5 8 -3 3 6 -6 10 -4 12 11 6 18 -7 18 -6 -1 12 -11 11 -24 17
-30 14 -5 -3 -4 -7 3 -10 8 -2 7 -8 -4 -19 -10 -11 -12 -19 -5 -26 7 -7 7 -16
0 -29 -5 -10 -6 -18 -2 -18 4 0 0 -5 -10 -11 -26 -15 -36 0 -12 17 17 13 18
16 5 24 -8 5 -10 10 -4 10 10 0 14 12 15 52 0 9 8 19 17 23 15 5 14 9 -8 26
-14 12 -19 18 -12 14 7 -4 20 -1 29 7 12 9 15 9 9 0 -4 -7 -1 -12 9 -12 9 0
13 -5 10 -10 -4 -6 -10 -8 -14 -6 -4 3 -8 -1 -8 -9 0 -8 6 -16 13 -19 8 -3 11
0 7 10 -3 7 0 14 6 14 11 0 9 50 -3 85 -6 16 -4 15 6 -3 16 -26 32 -18 17 9
-8 15 -6 17 7 12 9 -3 20 0 25 8 6 10 8 8 7 -8 -2 -14 -7 -19 -18 -16 -12 4
-12 3 -1 -5 10 -8 11 -10 0 -14 -7 -2 -13 -15 -14 -28 -2 -22 -1 -22 12 -4 8
10 16 17 18 14 2 -3 7 -1 12 4 5 5 3 6 -4 2 -7 -4 -13 -3 -13 2 0 17 13 21 34
11 18 -9 19 -8 5 3 -18 15 -20 65 -2 65 6 0 9 -5 5 -11 -13 -21 -10 -35 6 -29
8 4 13 2 9 -3 -8 -14 10 -40 20 -30 4 5 2 11 -5 13 -6 3 -9 9 -6 15 4 6 13 1
21 -13 8 -13 12 -17 9 -7 -3 10 2 18 15 21 22 6 25 -3 7 -22 -10 -11 -10 -13
0 -7 7 4 12 2 12 -6 0 -10 2 -10 9 0 4 8 11 13 15 13 3 -1 7 -1 9 0 20 6 37 5
37 -2 0 -5 5 -9 11 -9 8 0 7 5 -1 15 -10 13 -10 19 5 35 10 11 14 20 9 20 -5
0 -2 5 6 11 13 9 13 10 -2 6 -12 -4 -16 0 -15 14 1 22 8 24 24 8 8 -8 13 -8
18 0 3 6 3 11 -2 10 -25 -6 -40 14 -36 47 2 18 0 34 -5 34 -5 0 -8 -22 -7 -50
1 -27 -1 -47 -5 -45 -4 3 -13 -2 -20 -10 -7 -8 -17 -15 -22 -15 -5 0 3 11 18
23 18 16 24 26 16 31 -7 4 -12 2 -12 -3 0 -6 -4 -11 -9 -11 -14 0 -7 27 13 49
16 18 16 20 0 29 -9 5 -18 22 -20 38 -2 24 -1 26 7 11 6 -9 7 -22 3 -28 -4 -7
-1 -10 7 -7 8 3 13 11 11 17 -1 7 2 9 9 5 7 -4 10 -2 7 7 -3 8 -10 13 -15 12
-5 -1 -10 4 -10 11 0 8 7 13 16 11 9 -1 15 -8 13 -15 -4 -17 31 -8 35 10 4 13
3 13 -6 0 -11 -16 -13 -13 -15 37 -1 18 1 30 5 27 4 -2 5 -16 3 -31 -4 -23 -3
-25 10 -13 9 7 14 16 11 20 -4 7 24 6 33 0 1 -2 6 -3 11 -4 5 0 13 -5 18 -10
4 -5 3 -6 -4 -2 -6 3 -15 2 -18 -4 -5 -8 -11 -8 -19 -1 -7 6 -16 8 -19 4 -4
-3 3 -12 16 -18 18 -10 25 -9 40 4 22 18 47 23 47 8 0 -5 3 -7 6 -4 4 4 -1 18
-10 31 -9 14 -16 29 -16 33 0 4 5 1 10 -7 12 -19 63 -22 56 -3 -7 18 12 27 29
13 10 -8 15 -9 15 -2 0 6 -5 14 -10 17 -6 4 -8 11 -5 16 4 5 0 9 -7 9 -9 0 -9
3 2 10 13 9 13 10 0 10 -13 0 -13 2 -1 9 8 5 16 17 17 25 1 9 -2 14 -7 10 -5
-3 -7 -10 -4 -15 4 -5 1 -9 -4 -9 -15 0 -14 12 6 39 15 22 15 25 0 36 -9 7
-14 15 -10 18 3 4 -2 9 -11 13 -9 3 -16 13 -16 22 0 13 3 12 16 -4 14 -17 15
-18 10 -1 -8 24 4 44 15 26 4 -7 4 -21 -1 -30 -7 -12 -5 -21 7 -30 14 -12 16
-12 8 0 -6 11 -4 13 8 8 9 -3 19 -1 23 5 4 6 3 8 -2 5 -12 -7 -41 9 -32 18 3
3 15 7 27 8 11 1 21 5 21 10 0 5 -9 6 -19 2 -14 -4 -23 1 -32 17 -6 13 -8 20
-4 16 4 -4 13 -1 20 5 11 10 10 15 -3 31 -16 18 -16 18 5 5 24 -14 43 -46 20
-33 -6 4 -3 -2 7 -14 11 -12 22 -20 25 -17 3 4 -1 10 -8 14 -8 6 -9 11 -3 15
6 3 14 2 17 -4 5 -8 11 -8 20 0 17 14 55 21 55 10 0 -4 7 -11 16 -14 14 -5 15
-4 5 8 -7 8 -8 17 -3 20 6 3 12 -1 16 -9 3 -8 11 -15 18 -14 10 0 10 2 1 6 -7
2 -13 9 -13 14 0 6 3 8 8 5 4 -2 18 2 32 9 l25 13 -27 -1 c-14 -1 -25 -4 -23
-8 2 -3 -7 -5 -21 -5 -13 0 -24 4 -24 8 0 8 16 12 34 9 5 -1 6 5 2 14 -3 9 -2
13 4 10 6 -3 10 1 10 11 0 14 2 15 18 3 14 -11 14 -10 -2 8 -10 13 -23 20 -27
17 -5 -3 -9 -1 -9 5 0 5 -3 17 -7 27 -4 12 -3 15 5 10 7 -4 12 -2 12 3 0 6 -7
11 -15 11 -8 0 -15 5 -15 10 0 6 -6 10 -14 10 -18 0 -32 20 -20 29 15 11 15
31 -1 31 -8 0 -15 5 -15 10 0 7 6 7 18 1 13 -7 24 -4 42 10 25 20 25 20 2 9
-22 -11 -23 -10 -17 12 7 20 6 21 -9 9 -13 -11 -14 -16 -4 -29 11 -13 10 -14
-8 -2 l-21 13 21 21 c12 12 24 17 28 12 9 -13 38 -16 38 -4 0 6 -6 8 -14 5 -9
-4 -13 2 -12 16 1 23 20 29 49 15 12 -6 17 -5 17 7 0 10 -5 13 -12 9 -9 -6 -9
-3 0 9 8 9 11 22 7 29 -4 7 2 3 12 -9 24 -30 62 -35 91 -12 13 10 32 16 43 14
11 -2 17 0 14 5 -3 5 -17 6 -32 4 -26 -5 -26 -4 -10 14 9 10 17 22 17 26 0 5
-9 -2 -21 -15 -15 -17 -19 -19 -15 -6 3 9 1 17 -4 17 -12 0 -21 -16 -13 -24 4
-4 8 -14 9 -22 1 -9 0 -13 -3 -10 -4 3 -12 1 -20 -6 -11 -9 -13 -8 -11 2 2 7
-3 15 -11 18 -9 3 -11 0 -6 -8 5 -9 4 -11 -4 -6 -6 4 -9 12 -6 17 8 12 35 11
35 -2 0 -5 5 -7 11 -4 7 5 2 17 -13 33 -13 15 -16 21 -6 14 11 -9 18 -10 23
-2 3 5 2 10 -3 10 -6 0 -9 17 -8 38 2 34 -2 41 -26 51 -16 7 -25 17 -22 23 5
7 11 5 19 -6 11 -15 13 -15 19 -1 3 9 2 14 -3 11 -5 -3 -14 1 -21 9 -7 8 -18
15 -24 15 -6 0 -4 -5 4 -10 12 -7 10 -9 -7 -7 -12 0 -19 5 -17 9 3 4 -1 8 -8
8 -9 0 -9 3 2 10 8 5 11 10 6 10 -5 0 -2 7 5 16 12 15 11 16 -11 10 l-25 -7
25 15 c15 9 29 11 36 5 6 -5 18 -3 30 6 13 11 15 14 4 13 -8 -2 -18 -7 -22
-13 -4 -5 -8 1 -8 15 0 20 -2 22 -10 10 -6 -9 -10 -10 -10 -3 0 6 12 21 26 32
21 16 30 18 49 9 14 -6 22 -15 18 -21 -3 -6 -1 -7 5 -3 6 3 9 15 7 26 -2 11 0
22 5 25 5 3 7 12 4 19 -3 7 2 19 11 26 8 7 15 21 15 31 0 11 4 19 10 19 5 0 7
-8 4 -17 -5 -15 -4 -16 5 -3 8 12 10 11 9 -7 -1 -11 -7 -19 -13 -16 -14 5 -41
-25 -31 -34 3 -4 12 1 19 11 12 16 13 16 14 -4 1 -11 -2 -18 -6 -16 -4 3 -17
-1 -27 -9 -10 -8 -14 -15 -8 -15 5 0 16 6 23 13 11 10 12 8 6 -10 -4 -15 -2
-23 5 -23 6 0 8 4 5 10 -3 5 6 22 20 36 15 15 23 29 18 33 -12 9 -15 41 -3 41
5 0 10 5 10 11 0 8 -4 8 -13 1 -23 -19 -44 8 -49 65 -1 7 -5 10 -10 7 -4 -3
-8 -1 -8 4 0 5 -6 9 -13 9 -16 0 -77 43 -77 55 0 4 8 8 18 8 13 0 14 -2 3 -9
-9 -6 -4 -8 17 -7 17 1 34 5 39 10 4 5 3 6 -4 3 -6 -4 -19 -4 -28 -1 -13 5
-14 8 -3 15 8 6 9 9 1 9 -9 0 -10 8 -4 39 1 2 9 -5 18 -16 10 -10 15 -14 11
-8 -4 7 -5 15 -1 18 3 4 1 7 -5 7 -7 0 -12 4 -12 10 0 5 5 9 12 7 7 -1 17 8
23 21 12 26 25 29 26 5 0 -13 3 -12 10 6 5 14 15 21 23 18 10 -4 12 0 9 14 -5
19 -6 19 -20 2 -8 -10 -12 -13 -8 -6 3 7 -2 25 -11 40 l-16 28 20 -22 c11 -12
22 -19 26 -16 3 4 -4 17 -16 30 -18 19 -20 26 -9 32 23 14 6 76 -25 89 -14 7
-31 12 -39 12 -9 0 -12 6 -9 18 5 16 5 16 -9 -1 -12 -15 -16 -15 -26 -3 -10
11 -8 15 6 20 10 3 5 4 -10 2 -15 -2 -25 -1 -22 2 2 3 -1 12 -8 20 -10 13 -9
14 1 8 9 -5 13 -3 11 5 -3 26 1 39 12 39 8 0 7 -5 -1 -16 -8 -8 -9 -14 -4 -13
23 4 26 -2 8 -15 -19 -15 -19 -15 2 -13 14 1 21 7 20 21 -1 12 4 21 11 21 6 0
15 3 19 7 3 4 -3 6 -14 3 -12 -2 -24 0 -27 6 -6 8 8 13 28 10 5 -1 6 3 2 9 -3
5 5 15 19 22 31 14 33 24 6 40 -11 7 -20 16 -20 21 0 4 11 0 25 -9 13 -8 29
-13 34 -10 10 6 8 37 -4 55 -3 5 -1 12 5 16 5 3 10 -2 10 -11 0 -10 3 -15 6
-11 7 7 -5 47 -14 47 -4 0 -18 -9 -31 -19 l-24 -19 26 -26 c30 -30 26 -35 -7
-8 -23 18 -26 29 -12 51 7 11 5 13 -7 8 -24 -9 -21 0 4 14 17 9 20 8 14 -2 -5
-8 -4 -10 4 -5 8 5 9 12 3 19 -5 7 -8 20 -7 30 2 9 -1 17 -6 17 -6 0 -8 4 -5
9 6 9 -37 21 -93 24 -19 2 -37 9 -39 16 -3 8 0 11 5 8 5 -3 10 0 10 8 0 19
-13 19 -21 0 -3 -8 -12 -12 -21 -9 -12 5 -10 10 11 26 14 12 23 27 20 35 -4
11 0 13 17 9 l22 -6 -22 11 c-13 7 -23 16 -23 21 0 10 14 11 24 1 11 -11 37
-12 30 -1 -4 6 0 14 7 19 11 7 11 9 1 9 -7 0 -15 -7 -18 -15 -4 -8 -10 -12
-15 -9 -5 3 0 19 12 35 11 16 25 27 30 24 5 -4 6 1 2 11 -5 14 -3 15 18 4 l24
-11 -25 20 c-27 22 -21 27 13 10 20 -9 20 -9 5 4 -10 8 -16 16 -13 19 3 2 -2
5 -10 6 -8 1 -22 3 -30 4 -18 2 -20 15 -3 20 8 3 6 7 -5 11 -9 3 -19 1 -23 -5
-5 -7 -2 -8 7 -3 11 7 12 6 2 -6 -9 -11 -8 -18 3 -33 13 -18 19 -15 14 9 -1 6
2 6 6 2 11 -11 14 -38 3 -32 -5 4 -6 0 -3 -8 3 -8 0 -18 -7 -23 -9 -5 -10 -2
-6 9 4 10 0 20 -11 26 -9 6 -12 11 -7 11 6 0 -1 9 -15 20 -14 11 -18 18 -9 15
15 -6 17 -3 21 44 1 11 6 17 10 15 4 -3 5 2 2 10 -3 9 -10 16 -15 16 -5 0 -8
6 -7 13 4 15 -51 18 -69 4 -23 -17 -102 2 -119 29 -9 13 -20 21 -25 18 -10 -6
0 25 13 43 6 7 7 17 3 23 -4 6 -1 9 7 8 7 -2 13 6 13 16 0 11 5 21 12 23 7 3
11 -4 10 -16 -1 -12 -4 -21 -8 -21 -4 0 -5 -13 -4 -30 1 -16 -1 -27 -6 -24 -5
3 -9 3 -9 0 0 -3 10 -10 21 -17 15 -8 19 -8 15 0 -11 17 -16 51 -7 51 4 0 16
7 27 15 12 9 13 13 4 10 -11 -4 -16 1 -17 15 -1 11 2 18 6 16 4 -3 13 0 21 6
13 8 12 9 -2 5 -9 -3 -24 0 -34 8 -15 11 -20 10 -30 -3 -9 -12 -13 -12 -19 -2
-5 9 -4 11 3 6 7 -4 12 -1 12 8 0 18 16 21 25 6 7 -11 71 -7 83 5 4 4 -4 4
-17 0 -18 -6 -22 -4 -15 6 15 25 12 46 -6 42 -19 -5 -34 21 -24 40 3 7 -3 1
-14 -13 -14 -17 -17 -28 -11 -36 7 -8 6 -15 -2 -20 -7 -4 -9 -3 -5 4 3 6 2 13
-3 16 -5 4 -13 -3 -16 -15 -4 -11 -9 -18 -12 -16 -2 3 7 28 21 56 l26 51 -20
20 c-17 17 -28 19 -68 14 -26 -3 -51 -10 -56 -15 -15 -13 -28 -11 -20 4 6 9 5
9 -8 0 -8 -7 -18 -10 -22 -6 -3 4 -14 8 -24 9 -9 2 -18 7 -20 13 -2 5 -9 9
-15 7 -7 -1 -9 -1 -4 1 4 3 4 10 0 16 -8 13 28 -12 39 -28 4 -5 8 -6 8 -2 0
15 -37 57 -44 50 -3 -3 -6 -1 -6 6 0 7 6 11 14 8 8 -3 22 4 33 15 10 12 12 18
6 14 -7 -4 -13 -3 -13 2 0 16 13 22 25 12 9 -7 17 -5 26 7 13 16 12 17 -3 5
-11 -9 -18 -10 -23 -2 -3 5 0 10 7 10 8 0 6 5 -5 11 -9 6 -14 15 -11 21 4 7 2
8 -4 4 -7 -4 -12 -2 -12 4 0 6 -5 8 -12 4 -7 -4 -8 -3 -4 4 8 14 52 -1 49 -17
-2 -6 4 -8 13 -4 15 5 15 7 0 15 -9 5 -14 14 -10 20 4 6 -1 8 -14 4 -18 -6
-20 -4 -16 21 3 20 2 24 -5 13 -5 -8 -8 -17 -5 -21 7 -11 -20 -17 -41 -8 -11
4 -15 8 -9 8 5 1 19 8 30 16 16 13 16 14 1 9 -15 -6 -16 -3 -7 21 9 24 7 30
-16 50 -19 16 -32 21 -43 15 -91 -48 -128 -60 -115 -39 4 7 -1 7 -16 -1 -17
-9 -25 -9 -34 1 -8 9 -8 10 0 6 7 -4 18 1 25 10 12 15 12 16 -1 8 -28 -17 -48
-15 -53 5 -3 11 -11 19 -19 17 -7 -2 -9 -2 -5 1 4 2 0 11 -10 19 -17 13 -16
13 5 3 12 -6 28 -8 34 -4 6 4 8 3 5 -2 -3 -6 -2 -16 3 -24 7 -11 9 -8 8 10 -1
14 -7 28 -13 33 -6 4 1 17 20 35 17 15 26 24 20 20 -17 -11 -45 16 -34 33 6
10 9 10 9 2 0 -7 4 -13 8 -13 5 0 9 6 9 14 0 9 -8 13 -19 11 -12 -3 -18 1 -15
8 3 7 10 11 16 9 7 -1 10 2 6 8 -3 6 -10 8 -15 5 -4 -3 -10 -2 -13 2 -2 5 -2
3 -1 -4 2 -6 -4 -14 -12 -17 -25 -10 -27 -7 -13 12 13 15 12 16 -4 3 -9 -8
-21 -11 -24 -7 -4 4 -3 10 3 14 15 11 12 72 -4 72 -7 0 -11 4 -8 9 3 5 -5 11
-19 13 -17 4 -33 -2 -52 -20 -29 -27 -91 -57 -110 -54 -6 2 -14 -2 -18 -8 -4
-6 -12 -5 -21 5 -9 8 -21 12 -27 8 -7 -3 -9 -3 -5 2 4 4 3 17 -3 28 -8 14 -8
18 0 13 7 -5 8 -1 4 11 -6 16 -5 16 10 4 15 -12 17 -12 11 3 -8 22 -21 20 -36
-4 -7 -11 -16 -20 -20 -20 -12 0 -3 25 21 58 20 29 25 31 35 17 9 -13 11 -12
11 9 0 19 -3 22 -17 15 -10 -6 -19 -5 -23 1 -3 5 0 10 7 10 10 0 9 3 -2 9 -8
6 -18 7 -22 4 -5 -2 -15 0 -22 6 -9 8 -13 7 -13 -4 0 -8 4 -12 9 -9 4 3 8 0 8
-6 0 -6 4 -9 9 -5 5 3 12 1 15 -4 4 -5 2 -12 -3 -15 -5 -4 -12 -2 -16 4 -3 5
-11 10 -17 10 -6 0 -6 -6 2 -15 7 -9 19 -14 27 -11 8 3 11 1 8 -4 -18 -28 -51
5 -50 50 0 21 5 25 30 23 l30 -2 -28 11 c-23 8 -28 15 -24 35 5 25 -18 57 -34
48 -5 -4 -9 -1 -9 5 0 17 -40 -8 -82 -52 -21 -21 -38 -36 -38 -32 0 3 -6 2
-12 -3 -36 -29 -128 -19 -128 13 0 8 -7 11 -17 8 -11 -4 -14 -2 -8 3 14 12 19
47 5 38 -14 -9 -40 13 -34 29 13 33 47 2 49 -44 1 -8 7 -14 14 -12 8 2 11 -3
8 -12 -4 -9 -2 -18 4 -21 5 -4 9 -3 8 2 -4 21 2 34 13 27 7 -4 8 -3 4 5 -4 6
-11 9 -16 6 -5 -3 -14 3 -19 14 -14 26 -14 34 2 26 6 -4 2 2 -10 13 -12 11
-19 23 -15 28 4 5 -1 2 -10 -5 -12 -9 -18 -10 -18 -2 0 6 -6 10 -12 8 -9 -1
-14 15 -16 50 -3 43 -7 53 -25 59 -39 13 -45 12 -61 -9 -9 -12 -30 -41 -47
-65 -17 -24 -36 -41 -43 -39 -6 2 -15 -2 -21 -9 -14 -17 -60 -30 -50 -14 5 9
4 11 -4 6 -14 -9 -51 2 -51 16 0 7 4 7 13 -1 10 -8 14 -7 14 4 0 7 -3 13 -6
12 -3 -1 -6 3 -6 8 0 6 4 9 10 7 5 -2 6 0 2 5 -5 4 -14 8 -19 8 -6 0 -13 6
-16 14 -3 8 0 11 5 8 5 -3 10 0 10 8 0 18 -14 10 -28 -17 -9 -16 -8 -19 2 -13
8 6 10 4 4 -5 -5 -8 -4 -11 3 -6 6 3 9 -1 8 -9 -3 -19 -21 -20 -21 -2 -1 6 -7
11 -14 9 -7 -1 -10 2 -7 7 4 5 -1 17 -10 25 -9 9 -13 23 -10 31 3 8 1 17 -5
21 -6 3 -8 13 -5 21 3 8 1 11 -4 8 -6 -4 -10 7 -10 24 0 21 -5 31 -15 31 -8 0
-15 5 -15 10 0 14 -27 12 -40 -2 -40 -48 -49 -61 -45 -68 7 -12 -56 -81 -68
-73 -7 3 -9 3 -5 -2 14 -15 -29 -35 -66 -30 -52 7 -77 22 -69 42 5 12 2 15
-10 10 -9 -3 -21 1 -29 11 -11 13 -11 15 2 8 10 -5 9 -2 -2 6 -9 8 -26 36 -36
63 -20 51 -43 67 -79 54z m1612 -613 c0 -9 7 -21 15 -26 12 -7 12 -12 -4 -29
-10 -11 -15 -25 -11 -33 6 -10 5 -10 -5 -1 -11 10 -11 15 1 29 12 15 11 16
-11 10 l-25 -7 25 15 c14 9 19 15 12 16 -9 0 -11 7 -7 23 7 22 7 22 -9 2 -9
-11 -16 -15 -15 -10 3 26 -3 28 -17 5 -8 -14 -13 -17 -10 -7 3 10 6 22 6 27 0
5 12 7 28 6 17 -2 27 -9 27 -20z m-37 -40 c-7 -8 -15 -12 -17 -11 -5 6 10 25
20 25 5 0 4 -6 -3 -14z m-2113 -136 c3 -6 -1 -7 -9 -4 -18 7 -21 14 -7 14 6 0
13 -4 16 -10z m1371 -26 c1 -9 0 -13 -4 -10 -3 4 -7 14 -8 22 -1 9 0 13 4 10
3 -4 7 -14 8 -22z m-1412 -9 c-9 -14 -18 -25 -20 -25 -2 0 2 11 8 25 6 14 15
25 20 25 5 0 1 -11 -8 -25z m101 15 c-3 -5 -1 -10 4 -10 6 0 11 4 11 9 0 5 12
9 26 9 17 0 22 -3 13 -9 -7 -4 -17 -5 -23 -2 -5 3 -6 1 -2 -5 4 -7 -4 -9 -24
-7 -16 2 -30 -1 -30 -6 0 -6 -6 -7 -12 -2 -17 10 -38 13 -37 5 3 -17 -2 -23
-11 -17 -19 11 9 34 35 29 13 -2 27 0 30 6 3 5 11 10 16 10 6 0 7 -4 4 -10z
m1279 2 c3 -5 -1 -9 -9 -9 -8 0 -12 4 -9 9 3 4 7 8 9 8 2 0 6 -4 9 -8z m106
-17 c10 6 22 -23 14 -36 -3 -5 -10 -7 -15 -4 -5 4 -9 1 -9 -4 0 -14 6 -14 30
2 17 10 22 9 29 -2 5 -7 14 -10 20 -7 12 8 5 29 -7 22 -4 -2 -16 6 -27 17
l-20 20 23 -12 c12 -7 28 -9 34 -5 7 4 8 3 4 -4 -4 -7 -2 -12 4 -12 8 0 10 -9
5 -27 -6 -27 -6 -27 8 -8 11 14 12 25 5 40 -7 14 -4 13 11 -5 14 -18 16 -27 8
-32 -7 -4 -9 -8 -5 -8 3 0 15 -3 25 -6 15 -5 15 -4 3 5 -13 9 -13 11 3 11 9 0
17 4 17 9 0 5 -8 8 -17 7 -10 0 -18 7 -19 17 -1 12 0 13 3 2 5 -17 15 -19 29
-5 13 13 16 -27 4 -50 -6 -12 -5 -17 5 -17 7 0 11 7 7 15 -3 10 -1 13 6 8 8
-5 10 -1 5 10 -4 12 -3 15 5 10 7 -4 12 -2 12 6 1 7 6 3 13 -10 7 -12 16 -19
21 -15 4 4 4 -1 0 -12 -7 -17 -6 -18 8 -7 13 11 16 10 14 -4 0 -9 6 -19 14
-21 13 -4 13 -3 0 6 -13 9 -13 11 3 11 9 0 17 -5 17 -11 0 -5 4 -8 8 -5 11 7
9 -25 -3 -44 -8 -13 -6 -13 8 -1 9 7 15 17 12 21 -3 5 3 7 12 5 10 -2 20 -4
23 -4 2 -1 -1 -6 -8 -13 -7 -7 -12 -16 -12 -22 0 -6 5 -5 12 2 17 17 28 15 28
-4 0 -8 -4 -13 -9 -10 -11 7 -8 -21 4 -31 4 -4 5 -3 2 3 -4 7 0 17 8 24 12 10
15 10 15 0 0 -14 38 -50 52 -50 5 0 7 -4 4 -8 -3 -5 8 -19 25 -32 16 -14 29
-31 29 -38 0 -7 4 -11 9 -8 4 3 14 -7 20 -21 10 -22 14 -24 23 -12 7 11 9 9 5
-8 -3 -15 -1 -20 9 -16 9 3 12 -2 9 -16 -3 -16 1 -21 13 -19 9 2 16 -3 14 -9
-1 -7 3 -13 10 -13 6 0 8 -3 5 -6 -4 -4 1 -14 11 -23 28 -25 72 -93 66 -103
-3 -5 0 -7 8 -6 7 2 12 -5 12 -14 -1 -10 2 -15 7 -12 5 3 9 -1 9 -9 0 -8 9
-22 20 -32 11 -10 17 -22 14 -26 -3 -5 0 -9 5 -9 6 0 11 -9 11 -21 0 -11 5
-17 10 -14 6 3 10 3 10 -2 1 -4 3 -36 6 -70 5 -60 -12 -139 -38 -170 -6 -7 -7
-13 -4 -13 9 0 -10 -23 -67 -81 -27 -27 -55 -49 -63 -49 -9 0 -22 -7 -30 -15
-27 -26 -235 -20 -218 6 3 5 -2 9 -11 9 -9 0 -14 4 -11 9 3 4 -4 8 -17 7 -15
-1 -21 4 -19 15 1 9 -12 29 -30 44 -44 36 -54 55 -28 48 11 -3 20 0 20 6 0 6
-3 10 -7 10 -5 -1 -17 -1 -28 0 -19 2 -19 2 -2 15 9 7 17 17 17 22 0 4 -5 3
-12 -4 -7 -7 -19 -12 -27 -12 -13 1 -13 3 2 14 16 12 16 14 2 20 -11 4 -14 2
-9 -6 4 -7 3 -8 -4 -4 -7 4 -12 14 -12 22 0 8 -5 14 -11 14 -5 0 -7 5 -4 10 5
9 -7 14 -27 12 -3 -1 -9 5 -12 14 -4 10 -2 13 6 8 7 -4 8 -3 4 4 -4 7 -13 12
-21 12 -8 0 -17 5 -21 12 -5 7 -2 9 9 5 11 -4 14 -2 11 8 -3 8 -9 14 -12 12
-13 -3 -62 35 -62 49 0 8 -3 13 -7 12 -15 -4 -54 23 -48 33 4 5 3 8 -2 7 -8
-3 -23 8 -64 45 -10 9 -22 17 -26 17 -5 1 -18 9 -31 18 -12 9 -26 17 -30 17
-15 -1 -41 29 -35 39 4 6 -2 4 -12 -4 -17 -14 -18 -13 -12 3 4 10 3 16 -2 12
-5 -3 -12 -1 -16 5 -4 6 -12 7 -18 4 -7 -4 -9 -4 -5 1 4 4 -4 17 -18 27 -14
11 -23 22 -20 25 8 8 -18 31 -28 25 -5 -3 -6 0 -2 7 4 6 2 20 -6 29 -12 15
-11 16 5 3 21 -17 22 -3 1 27 -8 12 -10 22 -5 22 6 0 11 -5 11 -10 0 -6 4 -9
9 -8 5 2 16 -5 23 -15 13 -18 14 -17 14 2 0 11 -2 18 -4 16 -2 -2 -13 5 -25
15 -11 11 -24 17 -29 14 -5 -4 -2 8 6 25 12 22 13 31 4 31 -6 0 -3 6 8 14 10
8 21 12 24 10 2 -3 -2 -9 -10 -14 -11 -7 -12 -10 -2 -10 10 0 10 -4 -2 -16 -9
-8 -16 -20 -16 -26 0 -6 11 1 25 16 14 15 30 24 37 20 7 -4 8 -3 4 4 -4 6 -14
8 -24 5 -14 -6 -15 -4 -4 9 10 13 10 17 -4 22 -9 3 -20 4 -25 0 -5 -3 -9 0 -9
5 0 6 6 11 13 11 7 0 13 9 14 20 1 13 -2 18 -10 13 -7 -3 -5 2 4 13 17 20 15
49 -3 38 -7 -4 -8 -2 -4 5 4 6 11 9 16 6 4 -3 11 1 14 7 3 7 3 3 0 -9 -4 -18
-2 -22 10 -17 15 6 19 17 19 55 0 11 6 15 18 12 11 -3 19 -10 19 -15 0 -5 5
-6 10 -3 8 5 7 12 -2 23 -11 13 -11 14 1 7 11 -6 13 -4 8 8 -6 16 -4 16 22 3
16 -9 31 -13 34 -10 11 11 42 11 49 0 5 -7 8 -7 8 3 0 11 3 11 18 0 16 -13 16
-13 -1 7 -16 19 -52 30 -42 13 6 -9 -16 -6 -34 5 -11 7 -13 5 -8 -10 7 -18 6
-18 -6 -2 -8 10 -17 16 -20 13 -4 -3 -5 -2 -2 2 9 12 45 14 45 2 0 -5 5 -7 10
-4 7 4 6 14 -1 28 -9 20 -9 21 4 4 10 -12 17 -14 22 -8 9 16 28 13 22 -2 -3
-7 3 -18 12 -24 14 -9 18 -8 18 3 0 7 -3 11 -7 9 -4 -2 -7 2 -7 10 0 8 4 15 9
15 4 0 8 -4 8 -8 0 -5 7 -9 15 -9 21 0 19 10 -5 25 -12 7 -26 9 -33 5 -7 -4
-6 1 2 11 13 15 15 16 23 1 5 -8 13 -13 18 -10z m-1307 -2 c-10 -29 -25 -43
-37 -36 -6 3 -8 2 -3 -2 4 -5 16 -9 26 -10 13 -1 17 3 13 14 -4 13 -2 13 15
-2 20 -17 21 -17 27 0 7 16 9 16 19 2 7 -9 19 -14 27 -11 13 5 13 3 1 -12 -10
-12 -11 -20 -4 -27 8 -8 13 -7 18 2 5 8 4 10 -3 5 -7 -4 -12 -2 -12 3 0 19 19
12 31 -10 9 -17 8 -20 -3 -14 -7 3 -5 0 5 -8 10 -9 19 -21 21 -29 1 -7 5 -19
9 -25 5 -7 9 -42 11 -77 2 -50 -2 -77 -21 -121 -30 -70 -101 -155 -130 -155
-7 0 -13 -4 -13 -9 0 -5 -8 -12 -18 -15 -10 -4 -27 -14 -38 -24 -10 -10 -39
-32 -64 -49 -50 -34 -169 -155 -215 -218 -16 -22 -32 -42 -35 -45 -4 -3 -13
-20 -21 -37 -8 -18 -17 -33 -21 -33 -5 0 -8 -6 -8 -12 -1 -26 -122 -141 -170
-160 -56 -22 -196 -29 -209 -11 -3 4 -13 9 -21 11 -8 2 -17 8 -18 13 -2 5 -8
7 -13 3 -5 -3 -9 0 -9 5 0 6 -7 11 -15 11 -18 0 -20 21 -2 40 10 12 9 12 -4 2
-9 -6 -19 -9 -23 -5 -4 4 -4 -1 -1 -12 6 -16 5 -17 -3 -5 -7 9 -7 19 -2 25 7
8 3 11 -13 11 -16 -1 -21 4 -19 18 2 10 -1 15 -7 12 -12 -8 -33 28 -23 39 11
11 9 29 -5 43 -7 7 -13 18 -13 25 0 6 7 2 15 -9 15 -19 16 -19 13 1 -2 11 -7
23 -13 27 -6 5 -5 15 3 29 12 19 12 21 -3 16 -9 -4 -14 -3 -11 2 3 5 15 11 26
14 18 5 19 3 5 -23 -8 -16 -11 -31 -6 -34 4 -3 7 -25 6 -49 -1 -36 2 -43 18
-44 19 -2 19 -2 1 12 -15 11 -16 14 -4 15 11 0 12 2 3 8 -8 5 -9 13 -3 22 8
13 10 13 10 1 0 -8 3 -11 6 -8 4 4 1 14 -7 23 -18 22 -20 44 -3 37 8 -3 14 0
14 7 0 6 -5 8 -11 4 -6 -3 -10 1 -9 12 4 35 0 43 -17 38 -15 -5 -15 -4 -3 4
10 8 19 7 29 -1 11 -9 13 -9 8 0 -4 7 0 16 10 22 11 6 13 11 5 11 -7 0 -10 5
-7 10 5 8 12 7 23 -2 16 -12 16 -11 2 6 -14 18 -13 19 2 13 10 -3 20 -1 24 5
4 7 3 8 -4 4 -7 -4 -12 -1 -12 6 1 17 25 49 33 43 4 -3 5 -2 2 1 -7 10 15 45
25 39 5 -3 12 0 16 6 4 8 3 9 -4 5 -7 -4 -12 -3 -12 3 0 5 6 11 12 13 7 3 13
12 13 21 0 9 5 16 10 16 6 -1 9 -6 7 -12 -2 -7 2 -6 11 1 8 7 17 10 20 7 4 -3
4 -2 1 3 -3 4 -11 7 -17 7 -18 0 -19 23 0 27 15 3 14 5 -5 10 -14 4 -20 2 -15
-4 3 -7 1 -8 -5 -4 -8 4 -10 2 -6 -8 4 -9 -5 -20 -25 -30 -37 -20 -37 -20 -46
2 -5 13 -3 14 6 5 11 -11 16 -10 58 14 2 2 -2 9 -9 17 -6 9 -10 21 -7 28 3 8
6 6 6 -5 1 -10 6 -15 12 -12 6 4 8 14 4 23 -3 9 -3 13 1 10 3 -4 13 0 21 8 12
11 12 18 3 28 -9 12 -7 14 7 12 11 -2 17 -10 15 -22 -2 -17 -1 -17 7 -3 6 9 9
26 6 37 -3 16 0 19 12 15 12 -5 14 -3 8 8 -7 11 -6 12 7 2 15 -13 28 -8 28 9
0 5 -4 7 -9 4 -5 -3 -15 2 -22 12 -12 15 -12 16 2 4 13 -10 19 -9 29 3 7 8 18
15 24 15 7 0 7 -3 1 -8 -14 -10 -17 -32 -5 -32 5 0 10 5 10 11 0 5 5 7 10 4 6
-4 7 -12 4 -18 -4 -7 -3 -8 2 -4 5 5 9 14 9 20 1 7 6 11 13 9 7 -1 12 2 12 8
0 14 -13 13 -28 -2 -16 -16 -16 4 1 21 10 11 9 13 -6 8 -9 -4 -1 10 18 29 31
31 34 38 23 52 -12 15 -11 16 5 3 9 -7 17 -10 17 -6 0 5 3 6 6 2 4 -3 -2 -14
-11 -24 -11 -11 -14 -18 -6 -21 8 -3 8 -9 -1 -25 -10 -20 -10 -21 6 -8 11 9
14 21 10 35 -6 18 -5 19 9 8 12 -10 17 -10 23 -1 4 8 3 9 -4 5 -7 -4 -12 -1
-12 9 0 9 4 14 9 10 5 -3 13 -1 16 5 5 8 11 8 20 0 10 -8 15 -8 21 1 5 8 3 9
-6 4 -8 -5 -11 -3 -8 6 3 8 14 13 24 11 15 -2 16 -1 5 6 -11 8 -9 11 9 17 13
4 18 10 12 14 -6 3 0 11 15 18 20 10 24 10 19 -2 -3 -8 -1 -17 3 -19 5 -3 8 7
7 22 -1 19 4 27 16 26 14 -1 15 4 8 36 0 3 -7 -4 -16 -15 -8 -11 -18 -19 -22
-18 -4 0 -6 -3 -5 -7 1 -4 -4 -11 -13 -14 -8 -3 -13 -2 -11 2 6 8 -19 33 -25
26 -3 -2 -5 3 -5 11 0 10 4 12 12 5 7 -5 16 -6 20 -2 5 4 5 1 1 -5 -4 -7 -3
-13 2 -13 17 0 21 13 11 34 -9 19 -9 19 4 4 15 -19 33 -25 22 -9 -3 5 -1 12 5
16 6 4 8 11 5 16 -3 5 1 6 10 3 9 -4 22 1 31 12 14 18 14 18 8 -1 -5 -18 -3
-17 16 4 16 18 24 21 32 13 11 -11 9 -13 -8 -11 -3 0 -14 -10 -25 -22 -13 -15
-19 -18 -20 -8 0 9 -2 10 -5 2 -3 -7 -12 -9 -20 -6 -22 8 -17 -5 7 -18 17 -9
23 -7 36 11 11 16 18 18 28 10 10 -8 15 -8 21 1 5 8 3 9 -6 4 -8 -5 -11 -3 -8
6 3 8 10 15 16 15 7 1 17 2 22 3 16 2 12 22 -7 37 -17 13 -17 14 0 8 9 -3 23
-1 30 4 7 6 19 7 26 3 7 -5 22 -6 34 -3 13 3 18 1 13 -6 -4 -8 -2 -10 8 -6 8
3 17 13 21 22 6 16 7 16 20 -1 10 -14 14 -15 18 -4 6 15 34 16 57 2 8 -4 11
-4 7 0 -4 5 3 15 15 22 29 16 28 16 21 -4z m-233 3 c0 -2 -8 -10 -17 -17 -16
-13 -17 -12 -4 4 13 16 21 21 21 13z m30 -6 c0 -5 -4 -10 -10 -10 -5 0 -10 5
-10 10 0 6 5 10 10 10 6 0 10 -4 10 -10z m240 -16 c0 -14 -12 -19 -23 -8 -9 9
4 35 14 28 5 -3 9 -12 9 -20z m-360 -18 c0 -3 -4 -8 -10 -11 -5 -3 -10 -1 -10
4 0 6 5 11 10 11 6 0 10 -2 10 -4z m43 -10 c10 -8 15 -16 10 -18 -4 -3 -16 3
-25 14 -21 21 -11 24 15 4z m-110 -11 c-3 -9 -8 -14 -10 -11 -3 3 -2 9 2 15 9
16 15 13 8 -4z m2652 5 c3 -6 -1 -7 -9 -4 -10 4 -16 1 -16 -7 0 -7 -3 -10 -6
-6 -7 7 4 27 16 27 5 0 12 -4 15 -10z m-10 -30 c-3 -5 -4 -10 -1 -10 2 0 13
-3 23 -7 16 -6 16 -5 4 10 -9 11 -10 17 -2 17 6 0 11 -5 11 -11 0 -5 4 -8 9
-4 20 11 20 -13 1 -30 -13 -12 -17 -21 -10 -25 6 -4 -3 -7 -21 -7 l-31 0 28
15 28 15 -27 14 c-23 11 -30 33 -11 33 3 0 2 -4 -1 -10z m1 -32 c5 4 5 3 1 -2
-12 -15 -34 -15 -34 0 0 9 4 11 12 4 7 -5 16 -6 21 -2z m-2720 -74 c1 -11 -10
-27 -22 -37 -23 -18 -24 -17 -22 7 1 13 5 24 8 24 18 -2 30 3 30 13 0 6 -7 8
-16 5 -9 -3 -12 -2 -9 5 10 16 30 5 31 -17z m-61 -38 c0 -33 -9 -40 -26 -19
-8 9 -9 14 -3 10 7 -4 14 2 17 13 7 27 13 25 12 -4z m1525 -30 c0 -2 -7 -7
-16 -10 -8 -3 -12 -2 -9 4 6 10 25 14 25 6z m-1627 -36 c3 6 4 5 3 -2 -4 -19
-23 -20 -30 -2 -5 14 -4 15 8 5 10 -8 16 -9 19 -1z m3161 -63 c-6 -9 -4 -9 8
1 9 8 19 9 22 4 3 -6 0 -14 -7 -20 -15 -13 -43 1 -33 16 3 6 2 13 -4 17 -6 4
-7 11 -4 17 4 7 10 5 16 -6 5 -9 6 -22 2 -29z m-3197 17 c-8 -8 -48 -13 -43
-6 2 4 14 8 26 9 12 1 20 0 17 -3z m1348 -33 c-3 -5 -1 -12 5 -16 5 -3 10 2
10 12 1 10 10 -2 21 -26 19 -40 20 -48 8 -84 -20 -59 -78 -95 -131 -80 -10 2
-18 9 -18 14 0 6 5 7 10 4 6 -4 9 -1 8 7 -2 7 3 12 10 10 8 -1 11 2 7 8 -5 8
-11 8 -19 1 -7 -6 -16 -8 -19 -4 -4 3 1 11 9 18 15 11 15 12 0 12 -9 0 -16 -3
-17 -6 0 -3 -2 -14 -4 -24 -2 -11 1 -15 8 -11 8 4 7 2 -1 -7 -10 -11 -16 -10
-32 9 -11 12 -15 17 -8 12 23 -19 31 -10 12 12 -15 19 -16 20 -1 9 10 -8 17
-9 17 -3 0 6 -8 16 -17 21 -10 6 -12 11 -5 11 6 0 11 6 10 13 -2 7 5 11 16 9
13 -2 16 0 10 10 -15 24 -12 36 7 31 17 -5 23 4 21 28 -1 3 6 6 13 6 11 0 12
-4 4 -13 -6 -7 -7 -19 -3 -25 5 -8 3 -9 -6 -4 -8 5 -11 4 -7 -3 5 -6 -1 -8
-15 -4 -13 3 -19 1 -15 -6 4 -5 15 -9 25 -7 9 1 22 -2 29 -7 7 -6 14 -5 19 3
4 7 3 9 -4 5 -6 -3 -13 -2 -16 3 -3 5 2 12 11 15 9 4 20 1 24 -6 9 -14 22 -5
25 16 1 7 -4 13 -12 13 -7 0 -10 -5 -7 -11 4 -6 -1 -5 -10 3 -11 9 -17 10 -17
2 0 -6 -5 -11 -11 -11 -8 0 -8 5 1 15 7 8 16 13 20 10 4 -3 13 2 20 10 14 17
25 20 15 6z m-1448 -8 c-4 -3 -1 -13 6 -22 11 -14 10 -14 -5 -2 -16 12 -16 31
-1 31 4 0 3 -3 0 -7z m-27 -83 c-8 -5 -19 -10 -25 -10 -5 0 -3 5 5 10 8 5 20
10 25 10 6 0 3 -5 -5 -10z m-30 -74 c0 -2 -7 -7 -16 -10 -8 -3 -12 -2 -9 4 6
10 25 14 25 6z m-86 -52 c3 -8 2 -12 -4 -9 -6 3 -10 10 -10 16 0 14 7 11 14
-7z m85 -10 c-13 -7 -19 -14 -14 -14 6 0 1 -7 -10 -16 -11 -8 -18 -17 -16 -20
2 -3 -11 -27 -30 -52 -18 -26 -33 -51 -34 -56 0 -5 -10 -10 -21 -11 -22 -1
-27 17 -9 32 4 4 5 2 1 -4 -4 -7 -3 -13 2 -13 19 0 21 14 5 44 l-15 31 21 -22
c25 -27 36 -29 27 -7 -3 8 -2 13 2 11 4 -3 13 1 20 9 7 8 8 14 2 14 -5 0 -10
4 -10 10 0 5 8 7 18 3 14 -5 15 -4 4 8 -10 11 -6 19 25 45 21 18 42 30 47 27
5 -3 -2 -12 -15 -19z m-103 -33 c-4 -5 0 -11 6 -14 7 -3 3 -4 -9 -4 -17 1 -19
4 -11 14 12 15 22 18 14 4z m9 -49 c-3 -3 -11 0 -18 7 -9 10 -8 11 6 5 10 -3
15 -9 12 -12z m1490 -30 c-3 -3 -11 0 -18 7 -9 10 -8 11 6 5 10 -3 15 -9 12
-12z m75 -18 c0 -3 -7 -1 -15 6 -8 7 -15 17 -15 22 0 5 7 3 15 -6 8 -8 15 -18
15 -22z m25 -4 c-7 -11 29 -32 39 -23 3 3 6 1 6 -5 0 -7 -5 -12 -11 -12 -5 0
-7 -5 -3 -11 5 -8 9 -7 15 4 10 17 2 47 -13 47 -5 0 -6 -5 -2 -12 4 -7 3 -8
-5 -4 -6 4 -9 12 -5 17 3 5 0 17 -8 26 -12 15 -11 15 10 2 12 -8 22 -17 22
-22 0 -4 4 -5 10 -2 6 4 7 -1 3 -11 -4 -11 -3 -15 4 -11 12 8 12 -11 0 -30
-11 -18 -2 -16 17 3 13 12 14 20 4 37 -11 21 -10 21 14 5 20 -13 28 -14 39 -5
11 10 11 9 0 -5 -8 -11 -9 -18 -3 -18 6 0 16 8 21 18 6 9 11 12 11 7 0 -6 -5
-16 -12 -23 -9 -9 -9 -12 1 -12 7 0 10 -4 6 -9 -8 -15 15 -25 28 -12 8 8 8 14
-2 24 -10 10 -11 9 -6 -5 4 -10 3 -18 -3 -18 -6 0 -9 8 -8 17 3 18 43 26 53
10 3 -6 1 -7 -5 -3 -7 4 -12 1 -12 -8 0 -19 4 -19 33 -5 21 10 21 10 3 -5 -17
-14 -17 -16 -4 -16 9 0 20 4 23 10 4 6 13 5 24 -2 16 -10 17 -14 5 -25 -8 -8
-14 -20 -14 -26 0 -7 5 -4 11 6 13 22 58 15 80 -12 9 -11 19 -18 22 -15 3 3 8
0 13 -7 4 -8 3 -10 -4 -5 -7 4 -12 3 -12 -1 0 -5 15 -13 33 -18 24 -8 38 -21
54 -55 13 -25 23 -38 23 -30 0 9 -6 22 -12 30 -11 12 -10 12 5 1 9 -7 17 -17
17 -22 0 -4 14 -23 30 -41 17 -18 30 -38 30 -45 0 -7 5 -13 11 -13 5 0 7 -4 4
-10 -3 -5 -1 -10 5 -10 6 0 8 -4 5 -10 -3 -5 -2 -10 3 -10 10 0 36 -53 32 -66
-1 -4 3 -10 8 -13 28 -18 70 -218 70 -331 0 -145 -49 -319 -118 -425 -11 -16
-23 -38 -26 -47 -4 -10 -10 -18 -14 -18 -5 0 -18 -15 -29 -34 -66 -106 -243
-222 -421 -277 -93 -28 -291 -35 -373 -13 -29 8 -63 16 -77 19 -14 2 -43 13
-65 23 -22 11 -55 25 -72 33 -18 8 -33 17 -33 21 0 5 -7 8 -15 8 -8 0 -15 5
-15 10 0 6 -6 10 -13 10 -7 0 -22 8 -33 18 -10 10 -27 21 -36 25 -10 3 -18 13
-18 22 0 8 -8 15 -17 15 -15 0 -16 2 -3 10 12 8 11 10 -7 10 -13 0 -23 6 -23
14 0 10 7 13 20 11 11 -2 18 0 15 5 -6 10 -24 8 -45 -4 -8 -5 -12 -6 -8 -2 4
4 -9 21 -28 38 -19 16 -31 34 -28 39 3 5 10 7 15 3 5 -3 7 -10 4 -15 -3 -5 1
-6 10 -3 14 6 14 8 -2 20 -10 7 -23 14 -28 14 -10 0 -33 31 -37 47 0 5 -8 13
-16 19 -10 7 -12 13 -4 18 11 7 38 -32 34 -47 -1 -5 3 -5 9 -1 8 5 9 3 4 -6
-5 -8 -4 -11 3 -6 13 8 5 36 -10 36 -5 0 -7 4 -4 9 4 5 0 11 -6 14 -10 3 -10
8 2 23 14 17 14 18 -2 6 -13 -11 -20 -11 -37 0 -12 7 -19 19 -16 25 17 41 17
48 1 29 -9 -11 -16 -15 -16 -10 0 6 5 15 11 21 8 8 8 13 0 17 -6 4 -11 2 -11
-4 0 -6 -5 -8 -11 -4 -8 4 -7 9 2 14 10 7 10 11 -1 25 -10 12 -10 19 -2 27 13
13 17 52 4 44 -4 -2 -9 6 -10 20 -1 13 3 24 9 24 5 0 8 -3 5 -8 -2 -4 2 -18
10 -32 9 -16 13 -19 14 -9 0 9 -3 19 -7 23 -14 14 -12 38 3 32 9 -3 12 -1 9 4
-3 6 -21 8 -38 5 -22 -4 -28 -2 -17 4 8 5 18 7 22 5 4 -3 8 -1 8 5 0 6 6 8 14
5 8 -3 17 0 22 7 4 8 3 10 -5 5 -15 -10 -43 13 -34 28 3 6 0 5 -8 -2 -12 -11
-12 -14 1 -22 8 -5 11 -10 5 -10 -5 0 -16 4 -23 9 -11 6 -10 12 4 26 17 16 18
16 31 -1 11 -14 15 -15 26 -5 10 10 9 12 -3 9 -10 -2 -14 4 -13 17 1 11 0 15
-3 9 -7 -16 -41 -6 -49 14 -5 14 -4 15 6 5 18 -18 22 -17 55 13 16 15 24 24
17 20 -18 -10 -43 4 -43 25 0 10 -5 19 -11 19 -5 0 -7 5 -3 12 5 7 2 9 -8 6
-8 -4 -15 -1 -15 7 0 8 7 11 15 7 9 -3 13 -1 9 4 -3 6 4 11 16 11 12 1 17 -1
11 -5 -13 -8 -11 -49 2 -62 7 -7 9 1 8 22 -1 18 4 40 12 49 12 14 12 16 -1 16
-8 0 -11 -5 -8 -10 3 -6 1 -7 -6 -3 -6 4 -9 11 -6 16 3 5 1 11 -5 15 -5 3 -10
14 -9 23 0 11 2 12 6 4 2 -6 9 -10 14 -7 5 4 2 18 -7 33 -11 19 -12 22 -2 10
8 -10 18 -15 21 -11 4 3 2 12 -4 19 -8 9 -5 16 11 24 18 10 19 14 8 28 -10 12
-10 14 0 8 6 -4 12 -4 13 1 0 4 2 16 4 26 2 13 -1 17 -11 13 -9 -3 -12 -2 -9
5 4 6 13 8 21 5 19 -7 18 4 -3 21 -16 13 -16 13 5 3 12 -6 27 -8 32 -5 6 4 14
-4 19 -17 7 -19 8 -15 8 20 0 23 -1 42 -3 42 -1 0 -10 -7 -19 -16 -13 -13 -19
-14 -28 -5 -7 7 -7 11 -2 10 6 -2 20 2 31 9 16 8 21 19 19 42 -1 17 2 33 8 37
5 3 7 1 3 -5 -3 -6 -3 -13 2 -16 5 -3 27 15 49 39 23 24 45 40 49 37 4 -4 4 0
2 8 -3 8 -11 14 -17 12 -7 -1 -10 2 -6 8 5 8 11 8 21 -1 11 -9 23 -6 54 10 37
19 40 19 49 3 6 -9 11 -12 11 -7 0 6 -6 17 -12 24 -11 11 -10 13 5 8 11 -4 16
-3 12 3 -3 6 0 10 7 11 9 0 10 2 1 5 -7 3 -26 -5 -42 -17 -17 -12 -43 -24 -58
-25 -26 -3 -26 -2 -8 8 11 6 26 19 33 27 11 14 11 14 6 -2 -5 -13 -2 -16 9
-11 9 3 15 11 13 17 -1 7 -1 9 1 4 3 -4 9 -4 14 -1 6 3 5 11 -2 20 -8 10 -8
14 0 14 6 0 11 -4 11 -9 0 -5 11 -11 25 -13 13 -3 22 -1 19 3 -10 16 9 9 22
-8 13 -17 14 -17 8 -1 -4 13 -1 16 14 13 15 -3 18 1 14 21 -2 13 -8 24 -12 24
-5 0 -6 -10 -2 -22 3 -14 2 -19 -7 -14 -6 4 -9 12 -6 17 4 5 1 9 -4 9 -6 0
-11 -4 -11 -9 0 -15 -33 -22 -44 -10 -8 9 -8 10 1 5 6 -3 28 5 48 19 21 13 41
22 46 20 4 -3 15 5 23 17 9 12 16 17 16 10 0 -7 4 -11 9 -8 11 7 9 25 -4 45
-5 8 6 5 24 -8 25 -18 35 -20 46 -11 8 7 12 16 9 21 -3 5 2 6 10 3 9 -3 16
-11 16 -16 0 -6 9 -8 20 -5 11 3 20 1 20 -4 0 -5 5 -9 11 -9 5 0 8 4 5 8 -2 4
4 14 16 21 18 11 19 10 13 -11 -4 -16 -4 -19 3 -9 12 17 47 7 36 -10 -5 -8 -3
-9 6 -4 10 6 8 12 -8 26 -27 22 -28 29 -2 22 11 -3 20 -10 20 -15 0 -5 5 -6
10 -3 6 3 11 -2 11 -12 1 -16 2 -16 6 -1 2 10 10 15 19 11 7 -3 11 -10 7 -17
-3 -6 2 -3 13 6 16 14 23 15 34 5 10 -9 11 -9 6 0 -4 7 0 22 8 34 8 12 12 29
9 38 -4 13 -2 13 7 -2 6 -9 8 -21 5 -27z m-274 13 c13 -16 12 -17 -3 -4 -10 7
-18 15 -18 17 0 8 8 3 21 -13z m101 10 c-6 -2 -10 -9 -7 -13 3 -5 1 -11 -4
-14 -7 -5 -8 11 -2 32 1 1 7 2 14 1 9 0 9 -2 -1 -6z m-145 -18 c0 -8 -4 -12
-9 -9 -5 3 -6 10 -3 15 9 13 12 11 12 -6z m169 6 c-3 -5 1 -12 10 -15 12 -5
15 -2 10 9 -3 9 -2 13 4 10 6 -3 10 -14 10 -23 0 -13 5 -12 19 8 19 24 20 24
40 6 20 -18 20 -20 4 -32 -12 -8 -23 -9 -35 -3 -10 5 -18 7 -18 4 0 -3 -14 2
-30 10 -17 9 -28 20 -25 25 4 6 8 10 11 10 3 0 3 -4 0 -9z m2108 -7 c3 -8 2
-12 -4 -9 -6 3 -10 10 -10 16 0 14 7 11 14 -7z m-2172 -26 c-14 -14 -52 -18
-52 -6 0 7 23 12 43 9 4 0 7 4 7 11 0 6 3 8 7 5 4 -4 1 -13 -5 -19z m2228 12
c0 -5 -2 -10 -4 -10 -3 0 -8 5 -11 10 -3 6 -1 10 4 10 6 0 11 -4 11 -10z
m-2330 -20 c0 -5 -4 -10 -10 -10 -5 0 -10 5 -10 10 0 6 5 10 10 10 6 0 10 -4
10 -10z m2280 -10 c-6 -11 -13 -20 -16 -20 -2 0 0 9 6 20 6 11 13 20 16 20 2
0 0 -9 -6 -20z m55 8 c4 4 2 -3 -4 -16 -7 -13 -18 -21 -26 -18 -18 6 -26 -18
-12 -35 10 -11 9 -11 -5 0 -14 10 -15 17 -6 37 8 17 14 21 19 12 4 -7 11 -9
15 -5 4 3 1 15 -7 24 -12 16 -12 17 2 6 9 -7 19 -9 24 -5z m-2415 -7 c0 -15
-32 -23 -44 -11 -8 8 -6 9 5 5 10 -4 20 -2 24 4 8 13 15 14 15 2z m-1266 -33
c-3 -4 -11 -5 -19 -1 -21 7 -19 12 4 10 11 0 18 -5 15 -9z m1139 -33 c-3 -9
-8 -14 -10 -11 -3 3 -2 9 2 15 9 16 15 13 8 -4z m2507 -27 c0 -10 -21 -22 -45
-26 -20 -3 -20 -3 0 14 14 11 15 14 4 11 -9 -3 -16 1 -16 8 0 8 7 11 15 7 10
-4 13 -1 8 7 -6 9 -3 9 13 -1 12 -7 21 -16 21 -20z m-2585 3 c3 -5 2 -12 -3
-15 -5 -3 -9 1 -9 9 0 17 3 19 12 6z m5 -35 c0 -2 -7 -7 -16 -10 -8 -3 -12 -2
-9 4 6 10 25 14 25 6z m-1060 -46 c0 -5 -2 -10 -4 -10 -3 0 -8 5 -11 10 -3 6
-1 10 4 10 6 0 11 -4 11 -10z m980 -50 c0 -5 -5 -10 -11 -10 -5 0 -7 5 -4 10
3 6 8 10 11 10 2 0 4 -4 4 -10z m1625 -50 c3 -6 -1 -7 -9 -4 -18 7 -21 14 -7
14 6 0 13 -4 16 -10z m1207 -12 c-8 -8 -8 -17 -1 -32 10 -20 10 -20 -5 -2 -12
14 -13 23 -5 33 6 7 14 13 17 13 3 0 1 -5 -6 -12z m-70 -57 c-4 -10 -7 -11
-10 -3 -2 7 -9 9 -14 6 -6 -4 -8 -3 -5 3 10 16 36 11 29 -6z m3 -43 c-4 13 -2
22 5 22 6 0 8 -5 4 -11 -4 -8 0 -9 15 -4 29 9 26 3 -9 -24 -24 -17 -34 -19
-48 -11 -14 9 -13 10 7 4 l24 -6 -22 33 -23 34 27 -30 c23 -26 26 -27 20 -7z
m-38 -44 c-3 -3 -12 -4 -19 -1 -8 3 -5 6 6 6 11 1 17 -2 13 -5z m-27 -34 c-12
-23 -16 -24 -26 -8 -4 6 -3 8 3 5 6 -4 13 0 17 8 3 8 8 15 11 15 3 0 1 -9 -5
-20z m-2896 -8 c3 -5 -1 -9 -9 -9 -8 0 -12 4 -9 9 3 4 7 8 9 8 2 0 6 -4 9 -8z
m-4 -143 c0 -5 -4 -9 -8 -9 -5 0 -9 7 -9 15 0 8 4 12 9 9 4 -3 8 -9 8 -15z
m-301 -16 c-4 -23 2 -43 11 -38 6 3 10 2 10 -3 0 -5 7 -9 15 -9 18 0 20 13 3
20 -8 4 -9 6 -2 6 15 1 47 -47 39 -58 -3 -5 0 -11 6 -13 14 -5 -5 -73 -27 -99
-19 -22 -97 -45 -102 -30 -2 6 -12 11 -22 11 -25 0 -34 16 -14 24 9 4 13 2 8
-5 -4 -8 0 -7 15 0 11 7 21 14 21 17 0 3 -4 3 -8 0 -5 -3 -21 4 -38 16 -16 11
-21 18 -11 14 11 -3 17 0 17 8 0 8 5 16 11 18 7 2 5 11 -7 23 -17 17 -17 18
-1 12 16 -6 22 3 18 26 -1 5 3 6 8 2 6 -3 7 -13 4 -23 -5 -13 0 -11 20 7 20
19 24 28 17 46 -5 13 -6 26 -3 29 8 8 13 8 12 -1z m-29 -43 c8 -5 11 -10 5
-10 -5 0 -17 5 -25 10 -8 5 -10 10 -5 10 6 0 17 -5 25 -10z m3348 -12 c-2 -6
-12 -12 -21 -14 -9 -1 -15 2 -11 7 3 5 10 7 15 4 5 -4 9 -1 9 4 0 6 3 11 6 11
3 0 4 -5 2 -12z m-3043 -7 c3 -5 2 -12 -3 -15 -5 -3 -9 1 -9 9 0 17 3 19 12 6z
m1899 -23 c-3 -4 -11 -5 -19 -1 -21 7 -19 12 4 10 11 0 18 -5 15 -9z m-1858
-20 c4 4 2 -1 -5 -10 -10 -14 -16 -15 -32 -5 -22 14 -24 23 -6 30 6 3 17 -1
23 -9 6 -8 15 -10 20 -6z m1825 -2 c-6 -7 -9 -21 -5 -30 6 -16 -11 -23 -20 -8
-5 9 20 52 31 52 3 0 0 -6 -6 -14z m56 7 c-10 -9 14 -34 26 -26 6 4 8 0 4 -10
-3 -10 -2 -17 3 -17 12 0 13 11 4 35 -5 13 -8 14 -15 3 -7 -10 -9 -9 -9 4 0
10 7 16 19 15 11 0 19 -4 19 -7 -1 -3 3 -16 9 -30 12 -28 6 -90 -8 -90 -5 0
-8 -5 -6 -12 4 -18 -63 -58 -95 -56 -15 1 -28 6 -28 10 0 4 -7 8 -15 8 -8 0
-15 5 -15 11 0 5 6 7 13 4 6 -4 3 0 -7 9 -10 8 -24 17 -30 19 -12 4 32 46 49
47 6 0 3 -5 -5 -11 -12 -9 -12 -10 3 -5 12 4 17 2 14 -6 -2 -7 -9 -12 -14 -11
-5 1 -10 -5 -10 -13 0 -7 4 -14 9 -14 4 0 8 5 8 11 0 5 4 8 9 5 4 -3 8 5 7 17
-1 12 7 31 19 42 11 11 16 17 11 13 -16 -13 -23 -9 -21 10 1 25 15 43 26 37 5
-4 9 -1 9 4 0 6 5 11 12 11 6 0 8 -3 5 -7z m1149 -16 c1 -9 -2 -15 -7 -12 -10
7 -37 -6 -38 -17 -1 -5 -1 -12 -1 -18 0 -5 -3 -9 -7 -9 -20 3 -34 -2 -28 -10
3 -5 1 -12 -5 -16 -6 -4 -8 -11 -5 -16 4 -5 0 -9 -7 -9 -9 0 -9 -3 2 -10 8 -5
10 -10 4 -10 -21 0 -24 14 -8 38 15 23 15 24 -8 17 -17 -5 -15 -1 10 14 18 12
38 21 45 21 8 0 7 4 -3 10 -11 7 -11 10 -2 10 7 0 10 4 7 10 -3 6 1 7 10 4 9
-4 15 -3 14 2 -3 18 1 26 13 22 6 -2 12 -12 14 -21z m-71 -7 c-3 -5 -14 -10
-23 -9 -14 0 -13 2 3 9 27 11 27 11 20 0z m-3020 -20 c3 -5 1 -10 -4 -10 -6 0
-11 5 -11 10 0 6 2 10 4 10 3 0 8 -4 11 -10z m2980 -12 c5 4 5 1 1 -6 -6 -10
-11 -10 -22 -1 -8 6 -14 14 -14 16 0 3 6 0 13 -6 8 -6 18 -7 22 -3z m-3331
-27 c-2 -3 -12 3 -22 13 -16 17 -16 18 5 5 12 -7 20 -15 17 -18z m2171 -9
c-17 -15 -18 -15 -6 0 7 9 9 23 5 30 -6 10 -4 11 7 0 11 -10 10 -15 -6 -30z
m54 29 c9 -6 10 -11 2 -15 -6 -4 -11 -2 -11 4 0 6 -4 8 -10 5 -5 -3 -10 -1
-10 4 0 13 10 14 29 2z m-1859 -55 c0 -2 -7 -6 -15 -10 -8 -3 -15 -1 -15 4 0
6 7 10 15 10 8 0 15 -2 15 -4z m2950 -26 c0 -5 -2 -10 -4 -10 -3 0 -8 5 -11
10 -3 6 -1 10 4 10 6 0 11 -4 11 -10z m-2930 -74 c0 -3 -4 -8 -10 -11 -5 -3
-10 -1 -10 4 0 6 5 11 10 11 6 0 10 -2 10 -4z m3027 -118 c-3 -8 -6 -5 -6 6
-1 11 2 17 5 13 3 -3 4 -12 1 -19z m63 -28 c0 -5 -5 -10 -11 -10 -5 0 -7 5 -4
10 3 6 8 10 11 10 2 0 4 -4 4 -10z m-125 -9 c3 -5 2 -12 -3 -15 -5 -3 -9 1 -9
9 0 17 3 19 12 6z m45 -12 c0 -4 -5 -11 -11 -15 -8 -4 -7 -9 2 -15 8 -5 9 -9
3 -9 -6 0 -18 8 -25 17 -12 14 -12 16 0 8 11 -6 13 -4 9 7 -4 9 0 15 8 15 8 0
14 -4 14 -8z m-965 -38 c3 -5 2 -12 -3 -15 -5 -3 -9 1 -9 9 0 17 3 19 12 6z
m18 -26 c-3 -9 -8 -14 -10 -11 -3 3 -2 9 2 15 9 16 15 13 8 -4z m22 -4 c-3
-10 1 -24 10 -31 8 -7 13 -16 10 -19 -2 -4 2 -8 10 -8 11 0 12 4 4 14 -9 9 -8
17 1 28 9 10 9 15 1 15 -6 0 -11 -4 -11 -10 0 -5 -5 -10 -11 -10 -8 0 -9 4 0
13 6 8 7 18 3 22 -10 12 20 -6 41 -23 17 -15 24 -5 10 14 -5 5 -1 2 8 -8 9 -9
20 -14 23 -10 4 3 4 -1 1 -10 -4 -9 -1 -19 5 -23 6 -3 10 -3 9 2 -3 20 2 25
16 13 8 -7 15 -18 15 -24 0 -6 -5 -4 -10 4 -5 8 -10 10 -10 4 0 -15 29 -39 37
-30 3 3 1 6 -6 6 -7 0 -9 5 -5 11 5 8 10 6 16 -5 6 -10 7 -20 4 -23 -3 -3 2
-13 12 -22 83 -75 23 -309 -125 -492 -217 -268 -356 -390 -543 -479 -61 -29
-184 -48 -195 -30 -3 5 -12 7 -20 3 -8 -3 -15 0 -15 6 0 6 -9 11 -20 11 -11 0
-20 5 -20 10 0 6 -5 10 -11 10 -5 0 -7 -5 -3 -11 4 -7 -7 -1 -24 11 -17 13
-28 28 -25 33 4 6 0 8 -10 4 -11 -4 -14 -2 -10 9 3 7 0 14 -6 14 -6 0 -8 7 -5
15 4 8 10 13 14 10 5 -3 12 0 16 6 4 7 3 9 -3 6 -6 -4 -13 0 -17 8 -3 8 -1 17
4 20 6 4 10 12 10 18 0 8 -3 8 -8 2 -11 -15 -29 -16 -41 -1 -9 10 -7 13 6 12
10 0 19 4 20 9 1 6 -5 9 -14 7 -11 -2 -14 1 -10 12 7 17 -25 40 -38 28 -5 -4
-5 -1 -1 6 4 7 12 10 17 6 15 -9 48 26 42 44 -4 15 -3 15 6 2 7 -11 5 -20 -11
-37 -12 -13 -17 -23 -10 -23 6 0 20 14 32 30 19 26 24 29 38 18 14 -10 15 -10
5 2 -9 9 -9 17 -2 26 7 9 5 12 -8 9 -10 -1 -17 -9 -15 -16 3 -12 1 -12 -10 -1
-8 8 -9 15 -3 20 6 4 10 13 11 20 2 29 5 33 14 27 6 -3 11 -1 11 4 1 6 2 17 3
24 1 6 10 10 21 9 15 -3 17 -1 8 10 -8 10 -9 18 -1 28 8 12 9 12 4 -2 -3 -10
0 -20 6 -24 7 -4 2 -14 -13 -26 -19 -15 -20 -17 -4 -11 17 6 18 5 5 -9 -8 -9
-19 -13 -24 -10 -5 3 -6 0 -2 -6 5 -8 2 -10 -8 -6 -9 3 -16 1 -16 -5 0 -14 27
-14 35 -1 5 8 12 7 23 -2 15 -10 15 -10 4 2 -10 12 -9 18 10 32 20 16 20 17 3
11 -18 -6 -18 -5 -6 10 7 9 17 15 21 12 10 -6 19 16 12 33 -2 6 -11 12 -20 12
-26 0 -7 10 27 15 17 2 29 0 26 -5 -3 -5 0 -12 6 -16 7 -4 9 -3 6 3 -7 11 20
28 36 24 5 -1 6 2 4 6 -3 5 1 14 9 21 11 10 14 10 14 0 0 -6 7 -3 15 8 8 10
14 26 15 34 0 11 -2 12 -8 3 -6 -10 -12 -10 -28 2 -18 13 -18 14 5 8 18 -4 22
-3 17 6 -6 9 -3 9 13 0 11 -8 22 -18 24 -24 2 -5 3 -2 2 7 -2 13 3 16 25 13
30 -4 44 13 34 40 -4 11 0 15 17 15 12 0 19 3 15 8 -11 10 -30 9 -37 -1 -4 -5
-10 -4 -13 2 -4 6 -2 11 4 11 6 0 8 5 4 13 -5 7 0 6 11 -3 17 -14 18 -13 12 5
-6 17 -5 18 5 5 28 -33 45 -42 51 -26 4 10 1 13 -7 10 -23 -9 -29 16 -10 37
16 17 16 19 1 19 -10 0 -17 5 -17 10 0 7 6 7 20 0 14 -7 20 -7 20 0 0 5 -4 10
-10 10 -5 0 -10 5 -10 11 0 8 4 8 14 0 9 -7 17 -8 20 -2 3 5 0 11 -6 14 -7 2
-9 8 -5 13 13 13 27 -18 15 -33 -6 -7 -7 -13 -2 -13 5 0 3 -4 -5 -9 -9 -6 -10
-11 -2 -15 6 -4 13 4 17 19 5 22 9 24 23 13 14 -11 14 -11 3 4 -11 14 -10 19
9 32 12 8 27 13 33 10 6 -3 3 1 -6 9 -20 16 -24 37 -7 37 5 0 8 -4 5 -9 -3 -5
1 -11 9 -14 10 -4 12 -1 8 10 -5 12 -3 14 8 8 11 -7 12 -6 2 7 -13 15 -8 28 9
28 5 0 6 -5 2 -12 -5 -7 -3 -8 5 -3 9 5 9 11 3 17 -12 12 -4 40 9 32 5 -3 6
-10 3 -16 -4 -7 -2 -8 5 -4 7 5 8 13 3 19 -8 11 -8 35 -3 82 3 17 4 17 11 -5
6 -22 8 -23 15 -7 5 11 2 24 -9 36 -24 27 -19 33 7 8 16 -15 21 -27 15 -39 -5
-10 -4 -20 4 -24 7 -4 8 -3 4 4 -4 7 -1 13 8 13 29 3 34 4 41 11 4 4 -5 5 -20
2 -25 -4 -27 -3 -15 10 7 9 17 13 24 9 6 -3 7 -2 3 2 -11 13 -38 15 -31 3 4
-7 2 -8 -4 -4 -23 14 -12 26 20 22 22 -3 37 3 54 19 13 13 26 20 30 16 4 -3 3
0 -1 8 -6 11 -4 13 8 8 9 -3 19 -2 22 4 4 5 1 8 -6 7 -6 -2 -14 4 -16 12 -3 9
-1 11 4 5 10 -12 44 -19 42 -8 -5 28 2 36 15 18 14 -19 15 -19 27 8 14 31 23
36 14 8z m-2634 -8 c13 -16 12 -17 -3 -4 -10 7 -18 15 -18 17 0 8 8 3 21 -13z
m38 4 c8 -10 7 -14 -2 -14 -8 0 -14 6 -14 14 0 7 1 13 2 13 2 0 8 -6 14 -13z
m2528 7 c-3 -3 -12 -4 -19 -1 -8 3 -5 6 6 6 11 1 17 -2 13 -5z m-52 -41 c-9
-20 -17 -37 -18 -38 -1 0 -10 -7 -20 -14 -15 -12 -17 -12 -11 5 6 16 5 17 -7
7 -7 -7 -17 -13 -23 -13 -5 0 -1 6 9 14 11 8 26 11 34 8 10 -4 12 -1 6 8 -5 9
-4 11 3 6 15 -9 15 -1 1 27 -9 20 -9 21 4 4 14 -17 15 -16 20 3 3 11 8 20 11
20 4 0 -1 -17 -9 -37z m-2393 20 c-9 -4 -10 -8 -2 -18 7 -8 7 -15 1 -19 -5 -4
-12 -2 -16 4 -3 5 -11 10 -16 10 -6 0 -7 -4 -4 -10 3 -5 0 -7 -8 -4 -23 8 -31
-16 -11 -31 22 -15 38 -9 30 11 -8 20 11 17 24 -3 10 -16 11 -16 6 -1 -2 9 2
19 9 22 8 3 12 14 10 26 -2 11 0 18 6 15 5 -4 7 -10 4 -15 -3 -5 -1 -11 5 -15
5 -3 10 -1 10 6 0 7 7 4 15 -7 17 -23 19 -34 4 -34 -5 0 -8 4 -5 8 2 4 -6 8
-18 8 -12 0 -23 -6 -23 -13 0 -7 4 -13 9 -13 4 0 8 5 8 11 0 5 5 7 10 4 6 -4
8 -10 6 -14 -3 -3 4 -7 14 -7 11 0 17 2 15 4 -2 3 0 13 6 23 7 14 6 19 -2 19
-7 0 -9 3 -6 6 3 4 22 -7 42 -25 20 -17 33 -31 30 -31 -3 0 4 -9 15 -20 12
-12 18 -25 15 -30 -4 -6 2 -10 11 -10 10 0 14 -3 11 -6 -4 -4 1 -14 11 -23 29
-26 62 -78 62 -98 0 -11 3 -14 8 -7 5 9 11 8 20 -2 7 -8 11 -14 8 -14 -10 0
50 -56 67 -63 10 -4 15 -11 12 -17 -3 -5 -1 -10 5 -10 6 0 9 -4 6 -9 -3 -5 0
-8 8 -7 7 0 34 -18 59 -42 26 -23 50 -44 54 -45 5 -1 7 -6 5 -10 -1 -5 7 -7
19 -5 15 2 23 -3 25 -16 1 -11 10 -23 18 -28 9 -5 13 -15 9 -25 -6 -15 -5 -16
9 -3 15 14 15 16 -5 32 -12 10 -17 18 -11 18 6 0 17 -7 24 -15 7 -8 16 -12 21
-9 15 9 10 -8 -8 -29 -18 -20 -18 -20 10 -2 28 18 28 18 34 -3 3 -12 10 -22
15 -22 5 0 6 -5 2 -12 -4 -7 -3 -8 5 -4 9 6 9 11 0 22 -7 9 -8 14 -1 14 6 0
14 -9 17 -20 4 -11 11 -17 17 -14 7 4 8 2 4 -5 -4 -6 -11 -9 -16 -6 -5 3 -11
1 -14 -3 -3 -5 7 -9 22 -8 20 1 30 -6 41 -29 8 -16 17 -32 20 -35 3 -3 6 -20
6 -38 -1 -19 3 -35 7 -38 10 -7 0 -126 -11 -134 -6 -3 -12 -15 -14 -26 -1 -11
-21 -39 -44 -62 -22 -23 -38 -44 -35 -47 5 -5 -15 -8 -21 -2 -2 1 -11 -6 -21
-16 -10 -9 -26 -17 -36 -17 -10 0 -20 -5 -22 -11 -6 -18 -218 -15 -218 3 0 4
-3 7 -7 7 -21 -3 -33 2 -27 13 4 6 3 8 -4 5 -15 -10 -43 3 -35 16 3 5 2 7 -4
4 -13 -8 -75 31 -68 43 4 6 -1 7 -10 3 -10 -3 -20 -2 -24 3 -3 5 -28 25 -55
44 -27 19 -62 47 -78 63 -16 15 -33 27 -38 27 -5 0 -16 10 -24 22 -9 12 -16
19 -16 16 0 -4 -11 3 -25 16 -14 13 -25 28 -25 35 0 6 -4 11 -8 11 -5 0 -17 7
-28 15 -18 13 -17 14 11 9 34 -6 29 4 -5 11 -27 5 -90 63 -90 81 0 7 6 14 13
17 6 3 2 4 -9 4 -15 -1 -20 -6 -17 -17 3 -8 -4 -3 -13 13 -10 15 -22 27 -26
27 -5 0 -8 9 -8 20 0 11 -5 20 -11 20 -5 0 -7 5 -4 10 3 6 1 10 -5 10 -7 0
-10 6 -7 14 5 13 -26 51 -42 51 -3 0 -5 10 -4 23 1 14 -2 20 -9 16 -7 -5 -8
-2 -3 6 6 10 4 12 -11 6 -10 -4 -15 -4 -11 0 4 4 2 13 -4 20 -7 8 -7 14 1 19
8 5 7 11 -1 21 -7 9 -8 14 -3 13 23 -4 36 2 31 16 -4 8 -2 17 2 20 11 6 23
-23 15 -36 -3 -5 -3 -9 0 -9 3 0 10 10 17 21 6 12 7 19 1 15 -8 -5 -21 12 -22
29 0 3 -7 19 -16 36 -10 19 -11 28 -4 24 8 -5 11 -3 8 6 -3 8 -14 14 -26 14
-11 0 -23 3 -26 6 -8 8 35 4 57 -6 13 -6 15 -11 6 -21 -6 -7 -8 -18 -5 -23 8
-12 36 -3 36 11 0 5 -4 6 -10 3 -5 -3 -10 -2 -10 3 0 16 13 22 27 11 18 -16
17 -1 -2 17 -9 10 -15 11 -15 4 0 -7 -6 -6 -15 4 -18 18 -20 30 -2 19 6 -4 20
-6 31 -4 11 1 16 -2 12 -8 -4 -7 -1 -8 8 -5 12 5 7 14 -23 43 -29 28 -34 37
-20 37 9 0 16 -3 14 -6 -1 -3 3 -11 11 -18 8 -7 15 -10 15 -7 5 19 4 31 -4 36
-5 3 -1 9 8 12 9 4 13 3 10 -3 -3 -6 -2 -10 4 -10 15 0 23 18 11 25 -5 3 -10
12 -10 18 0 7 5 4 11 -6 6 -9 14 -15 19 -12 5 3 12 1 15 -5 4 -6 3 -9 -2 -8
-4 2 -19 -6 -33 -16 -14 -10 -18 -16 -9 -13 9 3 23 0 30 -6 11 -10 11 -9 1 5
-9 11 -10 18 -2 23 5 3 10 0 11 -7 0 -10 2 -10 6 0 2 6 9 10 14 6 5 -3 12 2
15 10 3 9 11 13 18 9 6 -4 5 1 -3 10 -16 20 -33 13 -24 -10 4 -11 3 -14 -6 -9
-7 5 -10 15 -7 23 5 11 0 13 -17 8 -17 -4 -16 -2 6 10 25 14 27 19 15 33 -11
15 -11 15 3 5 9 -7 20 -9 25 -5 4 4 3 0 -4 -9 -10 -14 -8 -19 14 -34 20 -13
29 -14 38 -5 8 8 7 10 -5 5 -21 -8 -41 16 -29 35 6 8 10 12 10 7 0 -4 11 -1
23 8 20 13 24 13 24 0 0 -8 -5 -11 -10 -8 -6 4 -7 1 -2 -7 5 -9 4 -11 -3 -6
-7 4 -20 2 -29 -4 -16 -10 -15 -11 5 -7 14 3 26 -1 32 -11 8 -14 10 -14 9 -2
-3 23 12 50 27 50 8 0 14 5 14 11 0 5 4 8 9 4 5 -3 12 -1 16 5 3 5 12 10 18 9
8 0 8 -2 -1 -6z m2298 3 c0 -2 -8 -10 -17 -17 -16 -13 -17 -12 -4 4 13 16 21
21 21 13z m-2426 -17 c3 -3 -4 -5 -14 -6 -11 -1 -20 2 -20 7 0 8 25 8 34 -1z
m2462 -11 c5 4 5 3 1 -2 -12 -15 -34 -15 -34 0 0 9 4 11 12 4 7 -5 16 -6 21
-2z m-2538 -20 c-2 -6 -10 -13 -16 -14 -7 -1 -8 0 -2 3 5 2 8 9 4 14 -3 5 0 9
6 9 7 0 10 -5 8 -12z m167 -9 c11 -17 -1 -21 -15 -4 -8 9 -8 15 -2 15 6 0 14
-5 17 -11z m2261 -114 c-3 -8 0 -15 5 -17 5 -2 1 -13 -10 -25 -11 -11 -17 -23
-15 -26 3 -3 -4 -11 -16 -17 -19 -10 -21 -10 -11 8 5 10 17 24 25 31 9 8 14
25 12 42 -2 16 1 26 6 23 5 -3 7 -12 4 -19z m-2510 -13 c-4 -3 -14 2 -24 12
-16 18 -16 18 6 6 13 -6 21 -14 18 -18z m2458 2 c3 -8 2 -12 -4 -9 -6 3 -10
10 -10 16 0 14 7 11 14 -7z m-14 -34 c0 -5 -5 -10 -11 -10 -5 0 -7 5 -4 10 3
6 8 10 11 10 2 0 4 -4 4 -10z m-40 -24 c0 -2 -8 -10 -17 -17 -16 -13 -17 -12
-4 4 13 16 21 21 21 13z m-2465 -15 c3 -5 2 -12 -3 -15 -5 -3 -9 1 -9 9 0 17
3 19 12 6z m2502 -20 c-1 -16 -4 -18 -17 -8 -25 19 -26 20 -7 14 9 -4 17 -2
17 3 0 6 2 10 4 10 3 0 4 -9 3 -19z m-2483 -9 c2 -4 -5 -9 -17 -9 -17 -2 -19
0 -7 7 18 12 18 12 24 2z m-44 -8 c0 -8 -19 -13 -24 -6 -3 5 1 9 9 9 8 0 15
-2 15 -3z m2528 -15 c10 -3 8 -10 -8 -24 -12 -11 -21 -15 -20 -10 2 6 1 12 0
15 -1 3 -3 13 -5 23 -2 13 0 15 8 9 7 -5 18 -11 25 -13z m1122 9 c0 -4 -6 -8
-14 -8 -8 0 -17 4 -20 8 -2 4 4 8 15 8 10 0 19 -4 19 -8z m-3614 -19 c-15 -9
-16 -13 -5 -21 11 -8 11 -9 -2 -5 -9 3 -22 0 -29 -6 -7 -7 -5 0 6 15 10 15 26
27 34 27 11 0 10 -2 -4 -10z m3574 -29 c0 -5 -5 -10 -11 -10 -5 0 -7 5 -4 10
3 6 8 10 11 10 2 0 4 -4 4 -10z m-1186 -48 c3 -5 -1 -9 -9 -9 -8 0 -12 4 -9 9
3 4 7 8 9 8 2 0 6 -4 9 -8z m-43 -88 c10 -13 10 -17 -2 -25 -27 -17 -44 -4
-33 25 8 20 18 20 35 0z m-117 -12 c3 -5 -1 -9 -9 -9 -8 0 -12 4 -9 9 3 4 7 8
9 8 2 0 6 -4 9 -8z m66 -2 c0 -5 -5 -10 -11 -10 -5 0 -7 5 -4 10 3 6 8 10 11
10 2 0 4 -4 4 -10z m-2235 -19 c3 -5 0 -13 -6 -17 -7 -4 -9 -3 -5 4 3 5 0 13
-6 15 -9 4 -10 6 -1 6 6 1 14 -3 18 -8z m1506 -48 c-14 -10 -13 -12 7 -10 12
1 22 6 22 12 1 10 20 -19 22 -32 0 -5 4 -18 9 -30 5 -13 4 -25 -2 -28 -5 -4
-7 -10 -4 -15 3 -5 -7 -24 -23 -41 -25 -28 -37 -33 -82 -35 l-52 -3 19 21 c10
12 13 18 6 15 -6 -4 -16 0 -22 10 -6 10 -11 13 -11 7 0 -6 -7 -11 -16 -11 -14
0 -14 2 2 14 12 9 21 10 28 3 5 -5 15 -10 21 -10 5 0 3 5 -5 10 -13 8 -12 12
4 27 18 17 19 17 13 0 -4 -10 -3 -16 2 -13 5 3 9 18 9 33 0 22 -3 24 -12 12
-6 -8 -18 -15 -26 -17 -8 -2 -19 -9 -23 -15 -6 -8 -7 -7 -4 3 2 8 14 21 28 27
13 7 18 13 11 13 -7 0 -10 5 -6 11 3 6 9 7 13 3 7 -11 31 -16 31 -8 0 3 -11
15 -25 26 -14 11 -25 25 -25 31 0 7 5 4 11 -6 6 -9 15 -14 21 -11 7 4 8 2 4
-4 -10 -17 0 -15 30 4 24 16 24 17 7 37 l-18 21 26 -20 c24 -17 25 -20 10 -31z
m-31 16 c0 -5 -4 -9 -8 -9 -5 0 -9 7 -9 15 0 8 4 12 9 9 4 -3 8 -9 8 -15z
m614 5 c3 -8 2 -12 -4 -9 -6 3 -10 10 -10 16 0 14 7 11 14 -7z m44 -5 c-2 -6
5 -13 15 -14 12 -2 17 1 14 10 -4 9 1 11 14 8 10 -3 19 -10 19 -16 0 -6 -3 -7
-7 -4 -4 4 -19 -4 -33 -18 -22 -21 -31 -24 -51 -16 -18 7 -20 10 -6 10 10 1
15 5 12 11 -4 6 1 7 12 3 15 -6 16 -4 6 9 -7 8 -10 18 -6 21 9 10 13 8 11 -4z
m-741 -34 c0 -8 -4 -12 -9 -9 -5 3 -6 10 -3 15 9 13 12 11 12 -6z m2178 5 c-3
-5 -12 -10 -18 -10 -7 0 -6 4 3 10 19 12 23 12 15 0z m-2171 -42 c-4 -5 -9 -7
-12 -4 -3 3 -12 0 -21 -7 -14 -10 -14 -10 -4 4 13 16 46 23 37 7z m607 -5 c13
-16 12 -17 -3 -4 -17 13 -22 21 -14 21 2 0 10 -8 17 -17z m1404 6 c-3 -3 4
-14 14 -23 18 -16 20 -16 29 0 7 12 15 15 28 9 11 -5 22 -9 26 -9 3 -1 10 -4
14 -8 3 -4 -4 -5 -17 -3 -12 3 -31 -2 -40 -11 -11 -10 -19 -12 -24 -4 -3 5
-11 7 -17 4 -6 -4 -8 -2 -4 4 3 5 -5 19 -20 29 -23 17 -23 19 -5 19 11 0 18
-3 16 -7z m33 -14 c-3 -3 -9 2 -12 12 -6 14 -5 15 5 6 7 -7 10 -15 7 -18z m67
7 c-3 -3 -11 0 -18 7 -9 10 -8 11 6 5 10 -3 15 -9 12 -12z m-1517 -37 c-3 -3
-9 2 -12 12 -6 14 -5 15 5 6 7 -7 10 -15 7 -18z m-621 -7 c-3 -8 -6 -5 -6 6
-1 11 2 17 5 13 3 -3 4 -12 1 -19z m703 18 c0 -2 -7 -6 -15 -10 -8 -3 -15 -1
-15 4 0 6 7 10 15 10 8 0 15 -2 15 -4z m-666 -65 c3 -5 -1 -11 -9 -15 -8 -3
-17 0 -21 6 -4 7 -3 8 4 4 7 -4 12 -2 12 3 0 13 7 14 14 2z m538 -37 c-9 -16
-10 -14 -9 8 1 15 6 23 11 18 4 -4 4 -16 -2 -26z m1373 -12 c-3 -3 -11 0 -18
7 -9 10 -8 11 6 5 10 -3 15 -9 12 -12z m35 -32 c0 -4 -7 -13 -15 -20 -16 -13
-35 -6 -34 13 0 9 2 9 6 0 2 -7 9 -13 14 -13 6 0 6 7 0 19 -9 16 -8 18 9 14
11 -3 20 -9 20 -13z m-1433 -6 c-3 -3 -12 -4 -19 -1 -8 3 -5 6 6 6 11 1 17 -2
13 -5z m-2247 -115 c0 -5 -4 -8 -9 -5 -5 3 -11 -1 -15 -9 -8 -21 6 -19 48 6
20 12 36 19 36 16 0 -3 -16 -14 -36 -26 -23 -14 -33 -25 -27 -34 4 -6 -7 -1
-23 13 -31 25 -31 25 -10 37 26 15 36 16 36 2z m2266 -21 c-2 -14 -8 -18 -28
-18 -6 0 -3 7 8 15 23 18 23 18 20 3z m1273 -5 c-12 -15 -12 -16 7 -11 13 3
25 -1 31 -12 9 -13 8 -17 -3 -17 -7 0 -11 4 -8 9 3 4 -3 8 -14 8 -26 0 -34 11
-21 27 6 7 14 13 16 13 3 0 -1 -8 -8 -17z m76 7 c3 -5 1 -10 -4 -10 -6 0 -11
5 -11 10 0 6 2 10 4 10 3 0 8 -4 11 -10z m-171 -38 c3 -5 -1 -9 -9 -9 -8 0
-12 4 -9 9 3 4 7 8 9 8 2 0 6 -4 9 -8z m-34 -122 c8 -5 11 -10 5 -10 -5 0 -17
5 -25 10 -8 5 -10 10 -5 10 6 0 17 -5 25 -10z m-3179 -94 c5 3 8 0 7 -8 -2 -7
4 -12 12 -10 12 3 13 1 3 -9 -11 -10 -16 -9 -28 7 -8 10 -14 24 -14 29 0 6 3
4 6 -3 2 -6 9 -10 14 -6z m99 -10 c0 -2 -7 -6 -15 -10 -8 -3 -15 -1 -15 4 0 6
7 10 15 10 8 0 15 -2 15 -4z m3111 -37 c-11 -9 -17 -20 -13 -24 4 -3 3 -6 -3
-5 -5 1 -12 1 -15 0 -26 -10 -37 -6 -32 12 3 11 10 17 18 14 18 -7 45 4 39 15
-3 4 -13 5 -23 2 -13 -4 -13 -2 3 10 15 12 23 13 33 4 12 -9 10 -14 -7 -28z
m-281 1 c0 -5 -2 -10 -4 -10 -3 0 -8 5 -11 10 -3 6 -1 10 4 10 6 0 11 -4 11
-10z m175 -1 c4 -5 -3 -8 -14 -6 -28 4 -34 12 -11 14 11 1 22 -2 25 -8z m-145
-73 c-1 -6 -6 -1 -13 12 -7 12 -17 19 -22 15 -4 -4 -5 -2 0 6 7 12 10 11 22
-4 7 -11 13 -24 13 -29z m-2516 -84 c3 -5 -1 -9 -9 -9 -8 0 -12 4 -9 9 3 4 7
8 9 8 2 0 6 -4 9 -8z m-73 -25 c-6 -8 -8 -17 -4 -20 3 -4 1 -7 -5 -7 -15 0
-15 13 0 28 16 16 23 15 9 -1z m2234 4 c3 -5 2 -12 -3 -15 -5 -3 -9 1 -9 9 0
17 3 19 12 6z m85 -26 c0 -5 -5 -3 -10 5 -5 8 -10 20 -10 25 0 6 5 3 10 -5 5
-8 10 -19 10 -25z m-2354 3 c4 -7 3 -8 -4 -4 -8 5 -12 -1 -13 -16 0 -13 -3
-17 -6 -10 -5 13 2 42 11 42 3 0 8 -5 12 -12z m2329 -20 c0 -6 6 -13 14 -16 9
-3 11 0 6 9 -6 11 -5 11 5 2 7 -6 9 -16 6 -22 -10 -16 -45 9 -43 30 1 19 12
15 12 -3z m205 2 c0 -5 -5 -10 -11 -10 -5 0 -7 5 -4 10 3 6 8 10 11 10 2 0 4
-4 4 -10z m60 -17 c0 -5 -5 -15 -10 -23 -7 -12 -9 -10 -7 8 1 19 17 33 17 15z
m-160 -7 c0 -3 -4 -8 -10 -11 -5 -3 -10 -1 -10 4 0 6 5 11 10 11 6 0 10 -2 10
-4z m-199 -84 c-7 -2 -18 1 -23 6 -8 8 -4 9 13 5 13 -4 18 -8 10 -11z m29 -27
c6 3 10 3 11 -2 0 -4 2 -16 4 -25 2 -10 -3 -16 -13 -16 -10 0 -25 -3 -34 -7
-11 -4 -18 -3 -18 5 0 6 5 8 10 5 6 -3 10 -1 10 5 0 6 4 9 9 5 5 -3 12 -1 16
5 3 5 0 10 -8 10 -8 0 -21 7 -28 17 -13 15 -12 15 9 4 12 -6 27 -9 32 -6z
m-1874 -10 c-1 -8 -5 -17 -8 -21 -5 -4 -4 16 1 34 3 9 9 -1 7 -13z m44 11 c0
-3 -4 -8 -10 -11 -5 -3 -10 -1 -10 4 0 6 5 11 10 11 6 0 10 -2 10 -4z m1603
-13 c-7 -2 -19 -2 -25 0 -7 3 -2 5 12 5 14 0 19 -2 13 -5z m-1703 -7 c0 -2 -7
-7 -16 -10 -8 -3 -12 -2 -9 4 6 10 25 14 25 6z m1660 -6 c0 -5 -2 -10 -4 -10
-3 0 -8 5 -11 10 -3 6 -1 10 4 10 6 0 11 -4 11 -10z m-80 -14 c0 -2 -7 -7 -16
-10 -8 -3 -12 -2 -9 4 6 10 25 14 25 6z m40 -6 c0 -5 -4 -10 -10 -10 -5 0 -10
5 -10 10 0 6 5 10 10 10 6 0 10 -4 10 -10z m-1162 -65 c-3 -3 -9 2 -12 12 -6
14 -5 15 5 6 7 -7 10 -15 7 -18z m863 8 c13 -16 12 -17 -3 -4 -17 13 -22 21
-14 21 2 0 10 -8 17 -17z m216 4 c0 -8 -6 -14 -14 -14 -9 0 -10 4 -2 14 6 7
12 13 14 13 1 0 2 -6 2 -13z m-1102 -6 c3 -5 2 -12 -3 -15 -5 -3 -9 1 -9 9 0
17 3 19 12 6z m120 -1 c3 -5 1 -10 -4 -10 -6 0 -11 5 -11 10 0 6 2 10 4 10 3
0 8 -4 11 -10z m992 -26 c-3 -3 -12 -4 -19 -1 -8 3 -5 6 6 6 11 1 17 -2 13 -5z
m-627 -56 c0 -5 -8 0 -18 10 -11 9 -17 21 -14 25 4 8 31 -22 32 -35z m274 16
c3 -8 2 -12 -4 -9 -6 3 -10 10 -10 16 0 14 7 11 14 -7z m26 6 c0 -5 -2 -10 -4
-10 -3 0 -8 5 -11 10 -3 6 -1 10 4 10 6 0 11 -4 11 -10z m-424 -15 c-1 -8 -5
-17 -8 -21 -5 -4 -4 16 1 34 3 9 9 -1 7 -13z m68 -25 c4 0 4 5 0 12 -5 7 -3 8
5 4 9 -6 8 -13 -5 -27 -20 -23 -25 -20 -29 17 -2 25 -1 26 10 11 7 -9 15 -17
19 -17z m273 -5 c0 -8 -4 -12 -9 -9 -5 3 -6 10 -3 15 9 13 12 11 12 -6z m363
-13 c0 -5 -7 -9 -15 -9 -8 0 -12 4 -9 9 3 4 9 8 15 8 5 0 9 -4 9 -8z m-389
-25 c-10 -9 -11 -8 -5 6 3 10 9 15 12 12 3 -3 0 -11 -7 -18z m-371 3 c0 -5 -7
-7 -15 -4 -8 4 -15 8 -15 10 0 2 7 4 15 4 8 0 15 -4 15 -10z"/>
<path d="M3380 3999 c0 -5 5 -7 10 -4 6 3 10 8 10 11 0 2 -4 4 -10 4 -5 0 -10
-5 -10 -11z"/>
<path d="M3560 4001 c0 -6 4 -13 10 -16 6 -3 7 1 4 9 -7 18 -14 21 -14 7z"/>
<path d="M3199 3983 c-1 -4 -1 -11 -1 -15 2 -13 -26 -29 -33 -18 -10 15 -25
12 -19 -5 4 -8 -7 -26 -26 -43 -27 -26 -29 -30 -14 -36 18 -7 37 11 27 27 -3
5 4 6 16 2 13 -4 21 -2 21 5 0 6 -4 8 -10 5 -12 -7 -13 5 -2 20 11 16 35 18
29 2 -3 -7 1 -14 9 -14 7 0 11 4 8 9 -3 4 -2 14 3 21 11 18 12 36 2 43 -5 3
-10 2 -10 -3z"/>
<path d="M3553 3967 c0 -7 9 -13 19 -13 10 0 18 1 18 3 0 1 -8 7 -18 12 -13 7
-19 6 -19 -2z"/>
<path d="M3230 3960 c0 -5 5 -10 11 -10 5 0 7 5 4 10 -3 6 -8 10 -11 10 -2 0
-4 -4 -4 -10z"/>
<path d="M3635 3930 c-4 -6 -11 -7 -17 -4 -7 4 -8 2 -4 -5 6 -9 11 -9 22 0 14
11 18 19 10 19 -3 0 -8 -5 -11 -10z"/>
<path d="M3099 3857 c-5 -13 -6 -38 -2 -34 3 3 16 2 30 -4 16 -6 22 -6 18 1
-3 6 -14 10 -23 10 -13 0 -14 2 -4 9 11 7 11 9 -2 14 -9 4 -16 5 -17 4z"/>
<path d="M3070 3726 c0 -2 9 -6 20 -9 11 -3 18 -1 14 4 -5 9 -34 13 -34 5z"/>
<path d="M3074 3649 c-3 -6 2 -19 12 -30 9 -10 13 -19 8 -19 -5 0 -2 -4 6 -9
16 -11 30 -5 30 12 0 8 -3 8 -9 -1 -7 -11 -9 -11 -14 2 -3 8 -1 17 6 20 9 3 8
5 -1 5 -7 1 -11 5 -8 10 3 5 -1 11 -9 15 -8 3 -17 1 -21 -5z m20 -15 c3 -8 2
-12 -4 -9 -6 3 -10 10 -10 16 0 14 7 11 14 -7z"/>
<path d="M3130 3641 c0 -6 4 -13 10 -16 6 -3 7 1 4 9 -7 18 -14 21 -14 7z"/>
<path d="M3136 3581 c-3 -5 2 -15 12 -22 15 -12 16 -12 5 2 -7 9 -10 19 -6 22
3 4 4 7 0 7 -3 0 -8 -4 -11 -9z"/>
<path d="M3570 3221 c0 -6 4 -13 10 -16 6 -3 7 1 4 9 -7 18 -14 21 -14 7z"/>
<path d="M3647 3083 c-16 -4 -15 -7 8 -19 31 -16 49 -19 22 -3 -9 6 -15 14
-12 20 4 5 5 8 3 8 -2 -1 -11 -3 -21 -6z"/>
<path d="M1969 4037 c6 -8 7 -18 3 -22 -4 -5 -1 -5 6 -1 10 6 10 11 1 22 -6 8
-14 14 -16 14 -3 0 0 -6 6 -13z"/>
<path d="M1814 4029 c-3 -6 -1 -16 5 -22 8 -8 11 -8 11 2 0 7 5 9 10 6 6 -3
10 -2 10 3 0 15 -28 23 -36 11z"/>
<path d="M2101 4004 c0 -11 3 -14 6 -6 3 7 2 16 -1 19 -3 4 -6 -2 -5 -13z"/>
<path d="M1865 4000 c3 -5 8 -10 11 -10 2 0 4 5 4 10 0 6 -5 10 -11 10 -5 0
-7 -4 -4 -10z"/>
<path d="M1726 3918 c3 -5 10 -6 15 -3 13 9 11 12 -6 12 -8 0 -12 -4 -9 -9z"/>
<path d="M1676 3878 c3 -5 10 -6 15 -3 13 9 11 12 -6 12 -8 0 -12 -4 -9 -9z"/>
<path d="M1440 3745 c-8 -9 -8 -15 -2 -15 12 0 26 19 19 26 -2 2 -10 -2 -17
-11z"/>
<path d="M1365 3650 c-4 -6 1 -7 11 -3 10 4 15 2 11 -4 -3 -5 0 -10 8 -10 20
0 19 13 -1 21 -21 8 -22 8 -29 -4z"/>
<path d="M1340 3640 c0 -6 -4 -9 -8 -6 -4 2 -8 -4 -8 -14 0 -10 3 -17 7 -14 4
2 10 -2 12 -8 3 -8 6 -6 6 5 1 10 6 15 11 12 15 -9 12 4 -5 21 -9 9 -15 11
-15 4z"/>
<path d="M1294 3573 c3 -7 -1 -10 -10 -6 -7 3 -14 1 -14 -4 0 -5 6 -10 13 -10
6 0 19 -3 27 -5 8 -3 12 -3 8 -1 -5 3 -8 11 -8 19 0 9 5 12 10 9 6 -3 10 -2
10 4 0 5 -9 9 -20 8 -12 -1 -18 -7 -16 -14z"/>
<path d="M1226 3398 c3 -5 10 -6 15 -3 13 9 11 12 -6 12 -8 0 -12 -4 -9 -9z"/>
<path d="M1190 3366 c0 -2 7 -7 16 -10 8 -3 12 -2 9 4 -6 10 -25 14 -25 6z"/>
<path d="M1135 3259 c-4 -6 -5 -12 -2 -15 2 -3 7 2 10 11 7 17 1 20 -8 4z"/>
<path d="M1086 3085 c4 -9 9 -13 12 -11 3 3 12 0 20 -7 11 -8 14 -8 9 0 -4 6
-2 14 3 16 6 3 5 4 -2 3 -7 -2 -21 1 -30 6 -14 7 -16 5 -12 -7z"/>
<path d="M2753 3648 c1 -15 6 -23 11 -18 4 4 4 16 -2 26 -9 16 -10 14 -9 -8z"/>
<path d="M2635 3610 c-4 -6 -13 -9 -20 -6 -7 2 -12 -2 -11 -9 3 -19 16 -32 16
-16 0 7 5 9 12 5 6 -4 8 -3 4 4 -3 5 0 12 6 15 7 2 10 7 7 11 -4 4 -10 2 -14
-4z"/>
<path d="M2656 3593 c-6 -14 -5 -15 5 -6 7 7 10 15 7 18 -3 3 -9 -2 -12 -12z"/>
<path d="M1175 3431 c-3 -5 -2 -12 3 -15 5 -3 9 1 9 9 0 17 -3 19 -12 6z"/>
<path d="M2705 3310 c-7 -11 22 -26 32 -16 4 3 -1 6 -11 6 -9 0 -14 5 -11 10
3 6 4 10 1 10 -3 0 -8 -5 -11 -10z"/>
<path d="M2825 3295 c0 -17 3 -21 12 -14 8 7 15 4 22 -8 6 -10 11 -13 11 -7 0
6 -10 20 -22 32 l-23 21 0 -24z"/>
<path d="M2417 3273 c-13 -13 -19 -14 -29 -5 -14 14 -32 16 -24 3 3 -5 -1 -14
-9 -21 -8 -7 -15 -9 -15 -5 0 5 -8 1 -18 -8 -10 -10 -23 -14 -28 -10 -5 5 -1
-1 8 -12 9 -11 17 -24 16 -28 0 -5 3 -11 5 -14 8 -7 3 20 -6 34 -4 6 -3 14 3
18 5 3 10 0 10 -7 0 -9 3 -9 8 -2 4 6 17 10 29 9 18 -1 20 1 12 17 -11 21 -6
22 23 7 13 -7 18 -7 14 -1 -3 6 -2 13 4 17 5 3 10 2 10 -2 0 -5 15 -9 33 -9
17 -1 26 1 20 3 -7 3 -15 3 -17 1 -3 -2 -11 5 -18 15 -12 17 -14 17 -31 0z"/>
<path d="M2990 3254 c0 -9 -5 -12 -12 -8 -7 4 -8 3 -4 -5 6 -9 11 -9 22 0 7 6
11 15 8 20 -8 14 -14 11 -14 -7z"/>
<path d="M2915 3250 c-3 -6 1 -7 9 -4 18 7 21 14 7 14 -6 0 -13 -4 -16 -10z"/>
<path d="M2960 3220 c8 -5 20 -10 25 -10 6 0 3 5 -5 10 -8 5 -19 10 -25 10 -5
0 -3 -5 5 -10z"/>
<path d="M3024 3218 c-4 -6 -3 -8 4 -4 5 3 13 0 15 -6 4 -10 6 -10 6 -1 1 7 8
10 16 7 8 -4 12 -10 9 -15 -3 -5 0 -9 5 -9 14 0 14 17 1 25 -20 12 -50 14 -56
3z"/>
<path d="M3090 3171 c0 -6 4 -13 10 -16 6 -3 7 1 4 9 -7 18 -14 21 -14 7z"/>
<path d="M3140 3156 c0 -3 9 -10 20 -16 11 -6 20 -8 20 -6 0 3 -9 10 -20 16
-11 6 -20 8 -20 6z"/>
<path d="M3155 3100 c3 -5 8 -10 11 -10 2 0 4 5 4 10 0 6 -5 10 -11 10 -5 0
-7 -4 -4 -10z"/>
<path d="M2140 3090 c-9 -6 -10 -10 -3 -10 6 0 15 5 18 10 8 12 4 12 -15 0z"/>
<path d="M2096 3068 c-9 -12 -16 -18 -16 -13 0 5 -19 -10 -43 -33 -24 -23 -46
-40 -49 -37 -17 17 1 -46 21 -71 12 -16 19 -22 15 -14 -4 8 -14 23 -22 33 -17
19 -3 24 16 5 9 -9 12 -9 12 0 0 7 -4 12 -8 12 -4 0 -8 10 -9 21 -2 17 1 19
10 10 16 -16 28 -14 25 5 -2 10 3 19 11 22 8 3 11 0 7 -6 -7 -12 20 -10 31 3
4 4 3 5 -4 1 -21 -12 -25 15 -6 37 11 12 23 28 27 35 12 21 -2 13 -18 -10z
m-39 -46 c-15 -16 -24 -32 -20 -37 5 -4 2 -5 -5 -1 -11 6 -7 15 14 37 15 16
30 29 33 29 2 0 -7 -13 -22 -28z"/>
<path d="M2116 3053 c-6 -14 -5 -15 5 -6 7 7 10 15 7 18 -3 3 -9 -2 -12 -12z"/>
<path d="M1937 2873 c-13 -16 -13 -20 -1 -31 11 -10 14 -10 15 0 0 7 2 21 4
31 2 9 2 17 1 17 -2 0 -10 -8 -19 -17z"/>
<path d="M1919 2832 c-2 -12 -5 -26 -9 -39 -1 -5 -2 -12 -1 -17 1 -5 -6 -6
-15 -2 -14 5 -15 4 -5 -8 8 -10 9 -16 1 -21 -6 -3 -8 -10 -5 -15 3 -5 1 -11
-5 -15 -15 -9 -12 -25 5 -25 15 0 17 4 18 38 1 9 7 21 14 25 8 5 11 12 8 17
-3 5 -1 11 4 15 5 3 8 15 6 27 -5 24 -14 36 -16 20z"/>
<path d="M1890 2635 c0 -8 2 -15 4 -15 2 0 6 7 10 15 3 8 1 15 -4 15 -6 0 -10
-7 -10 -15z"/>
<path d="M1893 2595 c0 -8 4 -12 9 -9 5 3 6 10 3 15 -9 13 -12 11 -12 -6z"/>
<path d="M1856 2327 c-18 -13 -18 -15 -1 -40 18 -28 35 -28 35 0 0 10 -6 13
-16 9 -12 -5 -15 -2 -10 10 3 8 6 18 6 21 0 3 8 -1 18 -8 15 -13 16 -12 3 4
-16 20 -13 20 -35 4z"/>
<path d="M1910 2260 c0 -5 5 -10 10 -10 6 0 10 5 10 10 0 6 -4 10 -10 10 -5 0
-10 -4 -10 -10z"/>
<path d="M1881 2216 c-8 -10 -8 -16 3 -25 11 -9 16 -9 21 0 4 6 2 15 -5 19
-10 6 -9 9 1 13 8 3 9 6 3 6 -6 1 -17 -5 -23 -13z"/>
<path d="M1950 2136 c0 -2 8 -10 18 -17 15 -13 16 -12 3 4 -13 16 -21 21 -21
13z"/>
<path d="M1960 2080 c8 -5 20 -10 25 -10 6 0 3 5 -5 10 -8 5 -19 10 -25 10 -5
0 -3 -5 5 -10z"/>
<path d="M1970 2026 c0 -2 7 -9 15 -16 13 -11 14 -10 9 4 -5 14 -24 23 -24 12z"/>
<path d="M2007 2019 c7 -7 15 -10 18 -7 3 3 -2 9 -12 12 -14 6 -15 5 -6 -5z"/>
<path d="M2085 1919 c-4 -6 -5 -12 -2 -15 2 -3 7 2 10 11 7 17 1 20 -8 4z"/>
<path d="M2636 3324 c-6 -15 -4 -15 11 -3 15 13 16 12 9 -6 -5 -15 -4 -17 5
-8 11 11 5 33 -11 33 -4 0 -11 -7 -14 -16z"/>
<path d="M4683 3195 c0 -8 4 -12 9 -9 5 3 6 10 3 15 -9 13 -12 11 -12 -6z"/>
<path d="M1527 2580 c-17 -19 -27 -25 -31 -17 -3 7 -5 6 -4 -3 1 -8 -3 -25
-10 -37 -10 -18 -9 -21 6 -18 9 2 19 4 22 5 3 1 8 2 11 2 3 -1 6 5 6 13 0 8
-4 12 -9 9 -15 -9 -8 12 10 34 13 14 22 18 34 11 11 -6 20 -4 28 6 7 8 17 12
24 8 6 -3 7 -2 3 2 -10 12 -39 16 -32 5 3 -5 1 -11 -5 -15 -5 -3 -10 1 -10 9
0 24 -16 19 -43 -14z m-17 -54 c0 -3 -4 -8 -10 -11 -5 -3 -10 -1 -10 4 0 6 5
11 10 11 6 0 10 -2 10 -4z"/>
<path d="M1590 2566 c0 -2 7 -7 16 -10 8 -3 12 -2 9 4 -6 10 -25 14 -25 6z"/>
<path d="M1830 2561 c0 -6 4 -13 10 -16 6 -3 7 1 4 9 -7 18 -14 21 -14 7z"/>
<path d="M3704 2538 c-3 -4 4 -8 15 -8 12 0 21 -5 21 -12 0 -6 2 -9 5 -6 3 3
3 12 0 20 -6 16 -33 20 -41 6z"/>
<path d="M3700 2466 c0 -2 8 -10 18 -17 15 -13 16 -12 3 4 -13 16 -21 21 -21
13z"/>
<path d="M3637 2453 c-10 -9 -9 -23 1 -23 5 0 9 7 9 15 0 17 -1 18 -10 8z"/>
<path d="M3675 2400 c3 -5 8 -10 11 -10 2 0 4 5 4 10 0 6 -5 10 -11 10 -5 0
-7 -4 -4 -10z"/>
<path d="M3966 2091 c-4 -6 0 -14 8 -17 9 -3 14 -9 12 -13 -3 -4 3 -7 13 -7
13 0 17 6 13 20 -3 12 -7 15 -10 8 -3 -10 -7 -8 -16 4 -9 12 -15 14 -20 5z"/>
<path d="M3877 2080 c10 -13 6 -18 -18 -29 -16 -7 -29 -17 -29 -23 0 -6 8 -4
18 4 9 9 27 19 39 22 11 4 24 14 27 23 5 12 4 13 -7 5 -10 -9 -17 -8 -27 1
-12 10 -12 9 -3 -3z"/>
<path d="M3790 1998 c0 -4 4 -8 9 -8 6 0 12 4 15 8 3 5 -1 9 -9 9 -8 0 -15 -4
-15 -9z"/>
<path d="M3665 1918 c3 -12 10 -26 16 -32 8 -7 7 -3 -1 13 -11 21 -10 23 4 18
22 -9 20 0 -3 13 -17 9 -19 7 -16 -12z"/>
<path d="M3490 1686 c-9 -12 -8 -15 8 -13 12 0 18 6 15 14 -6 16 -8 16 -23 -1z"/>
<path d="M3466 1603 c-6 -14 -5 -15 5 -6 7 7 10 15 7 18 -3 3 -9 -2 -12 -12z"/>
<path d="M3350 1520 c0 -5 5 -10 10 -10 6 0 10 5 10 10 0 6 -4 10 -10 10 -5 0
-10 -4 -10 -10z"/>
<path d="M3225 1460 c10 -11 20 -20 22 -20 2 0 -2 9 -9 20 -7 11 -17 20 -22
20 -5 0 -1 -9 9 -20z"/>
<path d="M3275 1469 c-4 -6 -5 -12 -2 -15 2 -3 7 2 10 11 7 17 1 20 -8 4z"/>
<path d="M3153 1343 c4 -3 1 -13 -6 -22 -11 -14 -10 -14 5 -2 16 12 16 31 1
31 -4 0 -3 -3 0 -7z"/>
<path d="M3107 1277 c-3 -8 1 -14 8 -14 7 0 11 6 8 14 -3 7 -6 13 -8 13 -2 0
-5 -6 -8 -13z"/>
<path d="M3069 1238 c-8 -15 -8 -19 0 -13 7 4 18 1 26 -5 11 -9 15 -9 15 -1 0
6 -6 11 -12 11 -10 0 -10 2 0 9 11 7 11 9 -2 14 -10 4 -20 -1 -27 -15z"/>
<path d="M3103 1092 c10 -10 15 -21 12 -24 -3 -3 1 -8 10 -12 14 -5 14 -2 -2
24 -9 17 -22 30 -27 30 -5 0 -2 -8 7 -18z"/>
<path d="M3127 1099 c7 -7 15 -10 18 -7 3 3 -2 9 -12 12 -14 6 -15 5 -6 -5z"/>
<path d="M1510 2036 c0 -9 4 -15 9 -12 5 4 11 0 14 -6 2 -7 7 -10 11 -7 3 3
-3 14 -14 24 -18 17 -20 17 -20 1z"/>
<path d="M1510 2000 c0 -5 5 -10 11 -10 5 0 7 5 4 10 -3 6 -8 10 -11 10 -2 0
-4 -4 -4 -10z"/>
<path d="M1154 1929 c-8 -14 14 -19 25 -6 8 10 7 14 -5 14 -8 0 -17 -4 -20 -8z"/>
<path d="M1117 1813 c-10 -9 -9 -23 1 -23 5 0 9 7 9 15 0 17 -1 18 -10 8z"/>
<path d="M1733 1735 c0 -8 4 -15 9 -15 4 0 8 4 8 9 0 6 -4 12 -8 15 -5 3 -9
-1 -9 -9z"/>
<path d="M1073 1723 c4 -3 2 -12 -3 -18 -8 -9 -6 -14 5 -19 8 -3 15 -1 15 5 0
6 4 8 8 5 5 -3 9 1 9 9 0 11 -4 12 -14 3 -11 -8 -12 -7 -7 6 4 10 1 16 -7 16
-7 0 -9 -3 -6 -7z"/>
<path d="M1837 1673 c5 -12 3 -14 -8 -8 -8 5 -11 4 -6 0 4 -5 14 -10 22 -11
12 -2 12 2 5 17 -13 23 -22 25 -13 2z"/>
<path d="M1120 1660 c-9 -6 -10 -10 -3 -10 6 0 15 5 18 10 8 12 4 12 -15 0z"/>
<path d="M1870 1641 c0 -6 4 -13 10 -16 6 -3 7 1 4 9 -7 18 -14 21 -14 7z"/>
<path d="M1103 1627 c0 -7 9 -14 19 -14 10 -1 18 3 18 9 0 6 -3 8 -7 5 -3 -4
-11 -2 -18 3 -8 7 -12 6 -12 -3z"/>
<path d="M1165 1580 c-3 -5 -2 -18 4 -27 7 -14 9 -12 8 10 -2 30 -3 31 -12 17z"/>
<path d="M1915 1580 c3 -5 8 -10 11 -10 2 0 4 5 4 10 0 6 -5 10 -11 10 -5 0
-7 -4 -4 -10z"/>
<path d="M1180 1518 c0 -7 7 -21 15 -32 13 -18 14 -18 12 2 0 11 -5 18 -11 15
-5 -4 -7 1 -3 10 3 10 2 17 -3 17 -6 0 -10 -6 -10 -12z"/>
<path d="M2065 1509 c-4 -6 -5 -12 -2 -15 2 -3 7 2 10 11 7 17 1 20 -8 4z"/>
<path d="M1240 1444 c0 -20 24 -34 40 -22 12 8 12 9 -2 4 -10 -3 -22 2 -27 12
-6 9 -11 12 -11 6z"/>
<path d="M2146 1442 c-3 -5 1 -9 9 -9 8 0 12 4 9 9 -3 4 -7 8 -9 8 -2 0 -6 -4
-9 -8z"/>
<path d="M1299 1393 c-13 -16 -12 -17 4 -4 16 13 21 21 13 21 -2 0 -10 -8 -17
-17z"/>
<path d="M1430 1261 c0 -6 4 -13 10 -16 6 -3 7 1 4 9 -7 18 -14 21 -14 7z"/>
<path d="M3395 1609 c-4 -6 -4 -13 -1 -16 3 -4 6 -1 6 6 0 7 5 9 12 5 7 -4 8
-3 4 4 -9 15 -13 15 -21 1z"/>
<path d="M2604 1509 c-3 -5 2 -12 10 -15 9 -3 14 -9 12 -13 -3 -4 6 -7 19 -7
13 0 22 3 19 7 -2 4 3 10 12 13 9 4 14 9 10 13 -10 10 -76 12 -82 2z m56 -11
c0 -14 -18 -17 -28 -5 -8 10 -6 13 9 13 10 0 19 -4 19 -8z"/>
<path d="M3266 1515 c-11 -8 -15 -15 -9 -15 6 0 16 7 23 15 16 19 11 19 -14 0z"/>
<path d="M4589 1443 c-13 -16 -12 -17 4 -4 16 13 21 21 13 21 -2 0 -10 -8 -17
-17z"/>
<path d="M2550 4812 c0 -5 7 -13 16 -16 22 -8 24 -8 24 6 0 6 -3 8 -7 5 -3 -4
-12 -2 -20 4 -8 7 -13 8 -13 1z"/>
<path d="M2586 4763 c-6 -14 -5 -15 5 -6 7 7 10 15 7 18 -3 3 -9 -2 -12 -12z"/>
<path d="M2970 4772 c0 -4 6 -14 13 -21 10 -11 9 -13 -5 -8 -15 5 -16 4 -5
-13 8 -14 13 -16 16 -8 2 7 11 22 20 33 15 18 15 19 -1 6 -16 -12 -22 -9 -19
12 0 4 -3 7 -9 7 -5 0 -10 -4 -10 -8z"/>
<path d="M2616 4758 c3 -5 10 -6 15 -3 13 9 11 12 -6 12 -8 0 -12 -4 -9 -9z"/>
<path d="M3332 4690 c0 -14 2 -19 5 -12 2 6 2 18 0 25 -3 6 -5 1 -5 -13z"/>
<path d="M3375 4700 c6 -10 4 -12 -8 -7 -10 3 -17 2 -17 -3 0 -13 27 -13 35
-1 3 5 0 13 -6 17 -8 5 -9 3 -4 -6z"/>
<path d="M3390 4671 c0 -10 19 -25 25 -20 1 2 -3 10 -11 17 -8 7 -14 8 -14 3z"/>
<path d="M3345 4620 c3 -5 10 -10 16 -10 5 0 9 5 9 10 0 6 -7 10 -16 10 -8 0
-12 -4 -9 -10z"/>
<path d="M3416 4613 c-6 -14 -5 -15 5 -6 7 7 10 15 7 18 -3 3 -9 -2 -12 -12z"/>
<path d="M3430 4539 c0 -5 5 -7 10 -4 6 3 10 8 10 11 0 2 -4 4 -10 4 -5 0 -10
-5 -10 -11z"/>
<path d="M3750 4526 c0 -2 7 -7 16 -10 8 -3 12 -2 9 4 -6 10 -25 14 -25 6z"/>
<path d="M3734 4428 l-19 -23 25 20 c14 11 27 21 29 22 2 2 0 3 -6 3 -5 0 -18
-10 -29 -22z"/>
<path d="M3765 4380 c-3 -6 1 -7 9 -4 18 7 21 14 7 14 -6 0 -13 -4 -16 -10z"/>
<path d="M4090 4206 c0 -2 7 -7 16 -10 8 -3 12 -2 9 4 -6 10 -25 14 -25 6z"/>
<path d="M4370 3900 c0 -5 5 -10 11 -10 5 0 7 5 4 10 -3 6 -8 10 -11 10 -2 0
-4 -4 -4 -10z"/>
<path d="M4350 3884 c0 -20 27 -37 36 -23 4 7 3 9 -4 5 -6 -3 -15 2 -21 11 -6
10 -11 13 -11 7z"/>
<path d="M4634 3640 c0 -13 4 -16 10 -10 7 7 7 13 0 20 -6 6 -10 3 -10 -10z"/>
<path d="M4524 3566 c-8 -20 25 -66 45 -65 14 1 14 2 0 6 -23 6 -41 47 -26 62
8 8 8 11 -1 11 -7 0 -15 -6 -18 -14z"/>
<path d="M4876 3062 c-3 -5 1 -9 9 -9 8 0 12 4 9 9 -3 4 -7 8 -9 8 -2 0 -6 -4
-9 -8z"/>
<path d="M417 3031 c-4 -17 -3 -21 5 -13 5 5 8 16 6 23 -3 8 -7 3 -11 -10z"/>
<path d="M4933 2685 c0 -8 4 -12 9 -9 5 3 6 10 3 15 -9 13 -12 11 -12 -6z"/>
<path d="M286 2678 c3 -5 10 -6 15 -3 13 9 11 12 -6 12 -8 0 -12 -4 -9 -9z"/>
<path d="M363 2648 c-1 -11 1 -16 5 -12 4 5 11 12 15 15 5 3 2 9 -5 12 -9 3
-14 -3 -15 -15z"/>
<path d="M4918 2640 c-15 -17 -15 -19 3 -36 10 -9 16 -21 13 -25 -3 -5 0 -9 6
-9 6 0 8 -5 4 -12 -4 -7 -3 -8 4 -4 6 4 9 13 5 21 -3 9 1 15 10 15 21 0 31 17
16 26 -8 4 -9 3 -5 -4 4 -7 1 -12 -9 -12 -9 0 -14 4 -11 9 4 5 -3 7 -14 4 -16
-4 -19 -2 -14 11 3 9 10 13 15 10 5 -3 6 2 3 10 -3 9 -7 16 -8 15 0 0 -9 -9
-18 -19z"/>
<path d="M304 2274 c-18 -14 -18 -15 4 -4 12 6 22 13 22 15 0 8 -5 6 -26 -11z"/>
<path d="M375 2240 c-3 -5 -1 -10 4 -10 6 0 11 5 11 10 0 6 -2 10 -4 10 -3 0
-8 -4 -11 -10z"/>
<path d="M4955 2239 c-4 -6 -5 -12 -2 -15 2 -3 7 2 10 11 7 17 1 20 -8 4z"/>
<path d="M353 2215 c0 -8 4 -12 9 -9 5 3 6 10 3 15 -9 13 -12 11 -12 -6z"/>
<path d="M4784 2125 c-21 -16 -21 -16 21 -20 17 -2 24 -1 17 2 -6 3 -10 9 -7
13 10 16 -12 19 -31 5z"/>
<path d="M4796 2055 c-11 -8 -15 -15 -9 -15 6 0 16 7 23 15 16 19 11 19 -14 0z"/>
<path d="M4749 2048 c-7 -25 -5 -36 7 -31 16 6 19 33 4 33 -5 0 -10 -1 -11 -2z"/>
<path d="M4785 2019 c-3 -4 2 -6 10 -5 21 3 28 13 10 13 -9 0 -18 -4 -20 -8z"/>
<path d="M4830 1895 c-10 -12 -9 -16 5 -21 9 -4 21 -2 27 4 8 8 4 9 -13 6 -19
-5 -21 -3 -9 5 8 5 12 13 9 16 -4 3 -12 -1 -19 -10z"/>
<path d="M396 1892 c6 -4 10 -15 8 -25 -1 -9 2 -15 7 -11 5 3 12 -2 15 -11 4
-11 13 -14 28 -9 18 6 19 5 7 -10 -8 -9 -9 -16 -3 -16 6 0 13 6 15 13 4 9 8 8
16 -3 7 -10 11 -11 11 -3 0 7 -12 19 -27 27 -16 8 -24 15 -19 16 5 0 3 7 -4
15 -7 8 -16 13 -20 10 -5 -3 -11 -1 -15 5 -3 5 -12 10 -18 10 -9 0 -9 -2 -1
-8z m50 -35 c3 -21 1 -21 -20 2 -17 19 -17 19 0 17 9 -2 18 -10 20 -19z"/>
<path d="M4895 1861 c-3 -5 -2 -12 3 -15 5 -3 9 1 9 9 0 17 -3 19 -12 6z"/>
<path d="M4757 1790 c6 -7 9 -20 6 -29 -4 -13 -3 -13 5 -2 11 15 36 6 27 -10
-10 -16 2 -10 16 9 7 9 9 14 5 10 -5 -4 -23 2 -40 14 -17 12 -26 15 -19 8z"/>
<path d="M4870 1790 c0 -5 5 -10 11 -10 5 0 7 5 4 10 -3 6 -8 10 -11 10 -2 0
-4 -4 -4 -10z"/>
<path d="M4710 1763 c0 -4 14 -16 30 -25 39 -22 39 -15 0 12 -16 12 -30 18
-30 13z"/>
<path d="M4830 1758 c0 -4 4 -8 9 -8 6 0 12 4 15 8 3 5 -1 9 -9 9 -8 0 -15 -4
-15 -9z"/>
<path d="M4716 1713 c-6 -14 -5 -15 5 -6 7 7 10 15 7 18 -3 3 -9 -2 -12 -12z"/>
<path d="M4660 1660 c-8 -5 -11 -10 -6 -10 5 0 2 -8 -5 -17 -9 -11 -10 -14 -2
-9 7 4 23 2 35 -4 21 -10 21 -10 6 3 -21 17 -23 33 -5 40 6 3 8 6 2 6 -5 0
-17 -4 -25 -9z"/>
<path d="M4708 1553 c7 -3 16 -2 19 1 4 3 -2 6 -13 5 -11 0 -14 -3 -6 -6z"/>
<path d="M515 1485 c0 -13 3 -21 8 -18 4 2 7 10 7 18 0 8 -3 16 -7 18 -5 3 -8
-5 -8 -18z"/>
<path d="M4710 1480 c0 -5 5 -10 10 -10 6 0 10 5 10 10 0 6 -4 10 -10 10 -5 0
-10 -4 -10 -10z"/>
<path d="M4745 1449 c-16 -10 -24 -19 -17 -19 7 0 10 -5 6 -12 -5 -7 -3 -8 5
-4 7 5 10 10 7 13 -3 3 5 14 17 24 28 24 20 23 -18 -2z"/>
<path d="M4517 1413 c-4 -3 -7 -11 -7 -17 0 -6 5 -5 12 2 6 6 9 14 7 17 -3 3
-9 2 -12 -2z"/>
<path d="M4493 1217 c0 -7 9 -14 19 -14 16 -2 16 0 4 13 -18 17 -23 18 -23 1z"/>
<path d="M4500 1175 c6 -8 9 -18 6 -23 -3 -5 4 -16 15 -25 23 -20 24 -15 4 23
-13 26 -13 29 3 33 10 3 5 5 -12 6 -24 1 -26 -1 -16 -14z"/>
<path d="M4534 1162 c4 -3 14 -7 22 -8 9 -1 13 0 10 4 -4 3 -14 7 -22 8 -9 1
-13 0 -10 -4z"/>
<path d="M709 1143 c-13 -16 -12 -17 4 -4 9 7 17 15 17 17 0 8 -8 3 -21 -13z"/>
<path d="M4465 1138 c1 -13 5 -22 8 -20 4 1 12 2 17 2 7 0 7 6 0 20 -14 27
-27 25 -25 -2z"/>
<path d="M835 1130 c3 -5 8 -10 11 -10 2 0 4 5 4 10 0 6 -5 10 -11 10 -5 0 -7
-4 -4 -10z"/>
<path d="M4430 1124 c0 -3 7 -12 15 -20 16 -17 18 -14 9 10 -6 15 -24 23 -24
10z"/>
<path d="M4500 1110 c-9 -6 -10 -10 -3 -10 6 0 15 5 18 10 8 12 4 12 -15 0z"/>
<path d="M4467 1086 c-4 -10 -1 -13 8 -9 8 3 12 9 9 14 -7 12 -11 11 -17 -5z"/>
<path d="M4310 1070 c0 -5 5 -10 11 -10 5 0 7 5 4 10 -3 6 -8 10 -11 10 -2 0
-4 -4 -4 -10z"/>
<path d="M4386 1058 c3 -5 10 -6 15 -3 13 9 11 12 -6 12 -8 0 -12 -4 -9 -9z"/>
<path d="M4254 1028 c-12 -13 -13 -18 -4 -12 8 4 24 8 35 7 16 -1 17 -1 2 3
-9 3 -15 10 -12 15 11 17 -2 9 -21 -13z"/>
<path d="M4226 962 c-3 -5 1 -9 9 -9 8 0 15 4 15 9 0 4 -4 8 -9 8 -6 0 -12 -4
-15 -8z"/>
<path d="M987 875 c-9 -7 -17 -16 -17 -21 0 -4 5 -3 12 4 7 7 17 12 23 12 5
-1 -1 -10 -15 -22 -18 -15 -20 -19 -6 -15 13 5 17 3 13 -6 -3 -8 1 -14 8 -14
8 0 11 7 7 16 -5 14 -4 14 11 2 28 -23 31 -4 5 27 -21 25 -27 27 -41 17z m44
-32 c12 -16 12 -17 -2 -6 -9 7 -20 9 -24 5 -5 -4 -5 -1 -1 6 9 16 11 15 27 -5z"/>
<path d="M1146 871 c-8 -12 4 -41 16 -41 6 0 6 6 -1 14 -9 11 -9 15 1 18 9 3
9 6 1 11 -7 4 -14 3 -17 -2z"/>
<path d="M1088 843 c-9 -11 -13 -12 -19 -1 -6 10 -9 10 -9 1 0 -7 9 -17 20
-23 16 -9 18 -8 14 5 -4 9 -3 15 2 14 18 -3 34 1 34 9 0 14 -29 10 -42 -5z"/>
<path d="M1186 842 c-3 -5 1 -9 9 -9 8 0 15 4 15 9 0 4 -4 8 -9 8 -6 0 -12 -4
-15 -8z"/>
<path d="M4270 845 c0 -5 5 -17 10 -25 5 -8 10 -10 10 -5 0 6 -5 17 -10 25 -5
8 -10 11 -10 5z"/>
<path d="M1120 820 c-9 -6 -10 -10 -3 -10 6 0 15 5 18 10 8 12 4 12 -15 0z"/>
<path d="M4220 802 c0 -5 7 -9 15 -9 8 0 12 4 9 9 -3 4 -9 8 -15 8 -5 0 -9 -4
-9 -8z"/>
<path d="M1053 775 c0 -8 4 -12 9 -9 5 3 6 10 3 15 -9 13 -12 11 -12 -6z"/>
<path d="M1310 630 c-6 -11 -8 -20 -4 -20 3 0 0 -8 -7 -17 -7 -10 -10 -15 -5
-11 5 4 17 -3 27 -15 13 -15 17 -17 13 -5 -5 14 -1 16 20 12 15 -2 26 0 26 6
0 8 6 8 20 0 16 -9 18 -8 14 5 -3 8 -10 12 -15 9 -5 -3 -9 1 -9 8 0 8 -3 9 -8
3 -4 -6 -11 -10 -17 -9 -17 2 -61 23 -49 23 6 1 11 8 11 16 0 20 -4 19 -17 -5z
m36 -42 c3 -4 -1 -5 -10 -4 -8 1 -18 5 -22 8 -3 4 1 5 10 4 8 -1 18 -5 22 -8z"/>
<path d="M3750 590 c-9 -6 -10 -10 -3 -10 6 0 15 5 18 10 8 12 4 12 -15 0z"/>
<path d="M1276 567 c3 -10 9 -15 12 -12 3 3 0 11 -7 18 -10 9 -11 8 -5 -6z"/>
<path d="M3970 571 c0 -6 4 -13 10 -16 6 -3 7 1 4 9 -7 18 -14 21 -14 7z"/>
<path d="M3705 560 c3 -5 8 -10 11 -10 2 0 4 5 4 10 0 6 -5 10 -11 10 -5 0 -7
-4 -4 -10z"/>
<path d="M1351 553 c-1 -17 16 -25 25 -12 4 7 3 9 -4 5 -5 -3 -13 0 -15 6 -4
9 -6 10 -6 1z"/>
<path d="M1844 478 c3 -13 5 -30 6 -38 0 -12 3 -12 11 2 7 12 6 24 -1 38 -14
26 -21 25 -16 -2z"/>
<path d="M3404 444 c6 -12 13 -19 16 -15 3 5 13 7 23 5 14 -2 15 1 8 10 -6 7
-10 15 -8 17 1 2 -2 1 -7 -3 -13 -11 -28 -10 -22 0 3 5 -1 9 -8 9 -10 0 -10
-6 -2 -23z"/>
<path d="M1655 441 c-3 -5 -2 -12 3 -15 5 -3 9 1 9 9 0 17 -3 19 -12 6z"/>
<path d="M1711 410 c-27 -27 -34 -40 -25 -44 8 -3 13 -2 13 2 -4 22 3 22 23 1
14 -17 19 -19 15 -6 -4 9 -4 24 0 32 5 14 8 14 28 1 18 -12 22 -12 22 -1 0 8
-5 11 -10 8 -5 -3 -7 0 -5 8 6 14 9 15 43 4 11 -3 7 2 -10 11 -45 27 -53 26
-94 -16z m58 13 c-6 -7 -15 -10 -20 -7 -5 3 -12 -2 -15 -10 -3 -9 -11 -16 -17
-16 -6 0 -1 11 11 23 24 25 61 35 41 10z"/>
<path d="M1875 440 c-3 -5 -1 -10 4 -10 6 0 11 5 11 10 0 6 -2 10 -4 10 -3 0
-8 -4 -11 -10z"/>
<path d="M3475 420 c-3 -5 -1 -10 4 -10 6 0 11 5 11 10 0 6 -2 10 -4 10 -3 0
-8 -4 -11 -10z"/>
<path d="M1753 375 c0 -8 4 -12 9 -9 5 3 6 10 3 15 -9 13 -12 11 -12 -6z"/>
<path d="M2203 366 c4 -9 -2 -17 -14 -21 -10 -4 -26 -20 -35 -37 -12 -22 -12
-28 -2 -22 7 5 16 9 20 9 3 0 10 4 15 9 5 5 3 6 -4 2 -8 -4 -13 -1 -13 9 0 9
5 13 10 10 6 -3 10 -1 10 4 0 6 5 11 11 11 6 0 8 -8 5 -17 -6 -17 -5 -17 7 -1
8 10 17 15 20 11 4 -3 13 -1 20 5 19 16 30 3 14 -17 -10 -14 -10 -14 5 -3 14
11 15 17 6 32 -11 17 -13 17 -24 2 -10 -14 -14 -14 -28 -3 -9 7 -13 17 -10 22
3 5 0 9 -6 9 -7 0 -10 -7 -7 -14z"/>
<path d="M3535 369 c-4 -6 -5 -12 -2 -15 2 -3 7 2 10 11 7 17 1 20 -8 4z"/>
<path d="M3565 371 c-6 -11 13 -26 22 -17 4 3 1 6 -6 6 -7 0 -9 5 -6 10 3 6 4
10 1 10 -3 0 -7 -4 -11 -9z"/>
<path d="M1619 353 c-13 -17 -13 -17 6 -3 11 8 22 16 24 17 2 2 0 3 -6 3 -6 0
-17 -8 -24 -17z"/>
<path d="M3050 345 c-11 -13 -10 -14 4 -9 9 3 16 10 16 15 0 13 -6 11 -20 -6z"/>
<path d="M1695 340 c3 -5 8 -10 11 -10 2 0 4 5 4 10 0 6 -5 10 -11 10 -5 0 -7
-4 -4 -10z"/>
<path d="M2650 336 c0 -2 8 -10 18 -17 15 -13 16 -12 3 4 -13 16 -21 21 -21
13z"/>
<path d="M2937 307 c-15 -18 -26 -35 -25 -39 2 -4 -6 -14 -17 -22 -20 -15 -20
-15 2 -13 12 1 20 3 18 6 -3 2 3 10 13 18 16 12 15 13 -3 6 -18 -6 -18 -5 -6
10 11 14 17 15 30 5 14 -11 14 -11 3 4 -14 17 -1 35 17 24 9 -6 9 19 0 28 -2
2 -17 -10 -32 -27z"/>
<path d="M2074 285 c-5 -12 -9 -13 -21 -4 -10 9 -17 9 -25 1 -9 -9 -9 -12 1
-12 7 0 9 -5 6 -10 -4 -6 -11 -8 -16 -5 -5 4 -4 -5 3 -19 13 -30 23 -33 36
-10 6 11 11 13 16 5 4 -6 12 -11 19 -11 6 0 2 7 -9 15 -17 13 -17 15 -1 16 9
1 22 2 29 3 6 0 12 7 14 14 1 7 0 8 -3 2 -3 -7 -11 -6 -24 1 -11 5 -17 14 -14
20 4 5 4 9 0 9 -3 0 -8 -7 -11 -15z m5 -19 c9 3 6 -1 -6 -7 -13 -7 -23 -19
-23 -28 0 -11 -3 -12 -12 -3 -8 8 -8 15 0 25 7 8 10 16 8 19 -1 3 1 2 7 -2 5
-5 17 -6 26 -4z"/>
<path d="M3296 275 c-9 -26 -7 -32 5 -12 6 10 9 21 6 23 -2 3 -7 -2 -11 -11z"/>
<path d="M3255 231 c-3 -5 -2 -12 3 -15 5 -3 9 1 9 9 0 17 -3 19 -12 6z"/>
<path d="M2935 220 c3 -5 8 -10 11 -10 2 0 4 5 4 10 0 6 -5 10 -11 10 -5 0 -7
-4 -4 -10z"/>
<path d="M2390 176 c0 -2 8 -10 18 -17 15 -13 16 -12 3 4 -13 16 -21 21 -21
13z"/>
</g>
</svg>
